<?xml version="1.0" encoding="utf-8"?>
<!-- Generator: Adobe Illustrator 19.2.0, SVG Export Plug-In . SVG Version: 6.00 Build 0)  -->
<svg version="1.1" id="Layer_1" xmlns="http://www.w3.org/2000/svg" xmlns:xlink="http://www.w3.org/1999/xlink" x="0px" y="0px"
	 width="890.1px" height="393.2px" viewBox="0 0 890.1 393.2" style="enable-background:new 0 0 890.1 393.2;" xml:space="preserve"
	>
<style type="text/css">
	.st0{fill:#359668;}
</style>
<g>
	<path d="M605,217c12,0,20-8,20-20c0-13-8-21-20-21s-20,8-20,21C585,209,593,217,605,217z"/>
	<path d="M153,89C57,89,0,148,0,215c2,58,38,83,67,83c18,0,30-8,33-17c-17-3-49-20-49-67c0-59,51-98,101-98c58,0,85,41,86,73
		c1,44-26,65-45,65c-15,0-34.5-13.2-30.2-40.2c5.3-23.5,13.9-35.6,16.2-37.8c0-1-4-6-11-7c-22-3-47,21-51,72c-1,34,8,58,6,82
		c-4,40-17,51-22,60c2,4,9,9,18,10c25,3,45-23,46-62c0.6-16.9-2.4-36-4.5-54.9c8.4,6.3,19.6,9.9,33.5,9.9c58,0,93-44,93-92
		C287,140,238,89,153,89z"/>
	<path d="M890,346c-20-4-24-50-24-72c0-18-2-40-23-40c-23,0-46,35-57,71c-2-13-1-33,6-61c-3-5-6-8-15-8c-8.9,0-15.6,8.3-20,21.1
		l0-0.1c-0.1,0.3-0.1,0.5-0.2,0.8c-0.6,1.8-1.1,3.7-1.7,5.6c-4.6,12.8-13.4,19.7-23.1,20.5c0-0.3,0-0.6,0-0.9c-2-38-19-51-31-51
		c-6.5,0-11.9,4.1-15.1,10.7c-3.1-2.3-7.1-3.7-11.9-3.7c-23,0-45,32-42,72c0,0.1,0,0.2,0,0.2c-3.9,11.8-9.6,20.8-18,20.8
		c-17,0-12-51-4-89c-3-5-6-7-15-7c-7.1,0-12.2,4.5-16,12.3V248c-13.4,24.4-27.4,42.6-43,57.6c-4.9-11.1-11-22.1-16.2-31.6
		c6.5-10.9,9.2-21.9,9.2-31c0-12-7-21-17-21c-12,0-24,14-24,33c0,5.3,1.2,11.7,3.1,18.8c-10.4,13.1-21.9,24.5-32.9,34.2
		c-4.9-11.3-11.1-22.4-16.3-32c6.5-10.9,9.2-21.9,9.2-31c0-12-7-21-17-21c-12,0-24,14-24,33c0,5.2,1.2,11.6,3,18.6
		c-9.9,27.5-24.5,60.4-36,60.4c-19,0-8-51-1-72c-2.7-4.2-8.1-6.8-14-6.4c-1.1-13.8-11.1-25.6-31-25.6c-33,0-70,40-70,89
		c0,27,15,43,35,43c17.2,0,31.7-10.4,42.7-25c5,14.1,15.1,25,32.3,25c26.1,0,42.3-22,53.9-52.8c2.7,7.5,5.3,14.6,7.2,20.8
		c-9.9,11-17.1,22-17.1,32c0,13,8,21,20,21c18,0,32-17,32-43c0-1.5-0.1-3-0.2-4.5c11.3-10.5,23.7-23.7,33.3-36
		c3.7,10.3,7.4,20.2,10,28.5c-9.9,11-17.1,22-17.1,32c0,13,8,21,20,21c18,0,32-17,32-43c0-1.6-0.1-3.3-0.3-5
		c9-9.2,17.5-20.1,25-30.9c-0.5,27.3,7.2,56.9,40.3,56.9c13.1,0,24.5-7.3,32.9-19.2c9,12.4,22.7,20.2,38.1,20.2
		c23.4,0,43.6-19.6,49.4-53c6.9-0.3,14-2.6,20.4-6.8c0.3,21.2,6.1,56.9,30.1,56.9c24,0,13-30,49-84c-6,40,5,90,38,90
		C880,365,891,357,890,346z M340,280.2l0-0.2c0,0,0.1,0,0.1,0C340.1,280.1,340.1,280.2,340,280.2z M339,281c-6,24-20,51-32,51
		c-8,0-11-8-11-15c-1-26,20-56,34-56C341,261,342,271,339,281z M684,332c-11,0-18-10-19-24c-1.6-22.6,6.6-39.2,17.9-45.8
		c0,0.3,0.1,0.6,0.1,0.8c1.3,17.5,9.2,31.1,21,38.9C701.3,320.7,693.2,332,684,332z"/>
</g>
<path class="st0" d="M406,0c-47,0-85,38-85,85s38,85,85,85s85-38,85-85S453,0,406,0z M406,57c0,4-3,6-6,6h-18c-4,0-6,3-6,6
	c0,4,2,7,6,7h10c4,0,6,2,6,6v4c0,4-2,6-6,6h-10c-4,0-6,3-6,6c0,4,2,7,6,7h18c3,0,6,2,6,6v5c0,4-3,6-6,6h-37c-4,0-6-2-6-6V52
	c0-4,2-7,6-7h37c3,0,6,3,6,7V57z M461,117c0,4-2,6-6,6h-30c-4,0-7-2-7-6V52c0-4,3-7,7-7h6c4,0,6,3,6,7v47c0,4,3,7,7,7h11
	c4,0,6,2,6,6V117z"/>
</svg>
