<?xml version="1.0" encoding="utf-8"?>
<!-- Generator: Adobe Illustrator 19.2.1, SVG Export Plug-In . SVG Version: 6.00 Build 0)  -->
<svg version="1.1" id="Warstwa_1" xmlns="http://www.w3.org/2000/svg" xmlns:xlink="http://www.w3.org/1999/xlink" x="0px" y="0px"
	 width="499.8px" height="393.4px" viewBox="0 0 499.8 393.4" style="enable-background:new 0 0 499.8 393.4;" xml:space="preserve"
	>
<style type="text/css">
	.st0{fill:#000319;}
</style>
<path id="XMLID_28_" class="st0" d="M474.1,125.8c-2.2-24.9-12.8-49.2-31.8-68.2C423.8,39.1,399.6,28,374,25.8
	C354.8,9.7,330.2,0,303.3,0c-26.1,0-51.1,9.3-70.8,25.8c-24.9,2.2-49.2,12.8-68.2,31.8c-8.3,8.3-15.1,17.7-20.3,28
	c-0.1,0.1-0.1,0.1-0.2,0.2c-0.3,0.7-0.7,1.4-1,2.1c-0.3,0.6-0.6,1.3-0.9,1.9c-9.5,19.3-23.8,35.9-39.9,49.9
	c-38.3,33.4-85.6,47.5-100.8,51.5c-1.5,0.4-1.7,2.5-0.2,3.1c14.1,6.1,60.4,28.1,98.1,59.6c16.4,13.7,32.3,29.9,42.5,49.1
	c5.3,11.9,12.8,23,22.6,32.8c18.5,18.5,42.7,29.6,68.3,31.8c19.2,16.1,43.8,25.8,70.7,25.8c26.1,0,51.1-9.3,70.8-25.8
	c24.9-2.2,49.2-12.8,68.2-31.8c18.5-18.5,29.6-42.7,31.8-68.3c16.1-19.2,25.8-43.8,25.8-70.7C499.9,170.5,490.7,145.5,474.1,125.8z
	 M372.2,278.7c-37.4,0-70.9-22.3-85.4-56.8c-0.5-1.2-1.9-1.7-3-1.1c-0.9,0.5-1.3,1.6-1,2.6c12.3,49.1,56.2,83.5,106.9,83.5
	c11.8,0,23.2-1.9,33.9-5.4c1.2-0.4,2.1,1.1,1.2,1.9l0,0c-36.1,36.1-94.8,36.1-130.9,0c-26.4-26.4-34.4-65.8-20.2-100.5
	c0.4-0.9,0.2-2.1-0.7-2.7c-1.1-0.8-2.5-0.5-3.1,0.6c-26.2,43.4-19.4,98.9,16.5,134.7c8.4,8.4,17.8,15.1,27.8,20.2
	c1.1,0.6,0.7,2.2-0.5,2.2l0,0c-51,0-92.5-41.5-92.5-92.5c0-37.4,22.3-70.9,56.8-85.4c1-0.4,1.6-1.6,1.2-2.7s-1.5-1.7-2.6-1.4
	c-49.2,12.2-83.6,56.2-83.6,107c0,11.8,1.9,23.2,5.4,33.9c0.4,1.2-1.1,2.1-1.9,1.2l0,0c-17.5-17.5-27.1-40.7-27.1-65.4
	c0-24.7,9.6-48,27.1-65.4c26.5-26.5,65.9-34.4,100.6-20.2c1.2,0.5,2.5-0.1,2.9-1.4c0.3-1-0.2-2-1.1-2.5
	c-43.4-26.1-98.8-19.3-134.6,16.6c-8.4,8.4-15.1,17.8-20.2,27.8c-0.6,1.1-2.2,0.7-2.2-0.5l0,0c0-51,41.5-92.5,92.5-92.5
	c37.4,0,70.9,22.3,85.3,56.7c0.4,1,1.4,1.6,2.5,1.4c1.2-0.3,1.9-1.5,1.7-2.6c-12.2-49.2-56.2-83.6-107-83.6
	c-11.8,0-23.2,1.9-33.9,5.4c-1.2,0.4-2.1-1.1-1.2-1.9l0,0c36.1-36.1,94.8-36.1,130.9,0c26.2,26.3,34.2,65.7,20.1,100.3
	c-0.4,1-0.2,2.1,0.7,2.7c0.4,0.3,0.8,0.4,1.3,0.4c0.7,0,1.4-0.4,1.9-1c26.2-43.4,19.4-98.9-16.5-134.7c-8.4-8.4-17.8-15.1-27.8-20.2
	c-1.1-0.6-0.7-2.2,0.5-2.2l0,0c51,0,92.5,41.5,92.5,92.5c0,37.4-22.3,70.9-56.7,85.3c-1,0.4-1.6,1.5-1.4,2.5s1.1,1.7,2.1,1.7
	c0.2,0,0.3,0,0.5-0.1c49.2-12.2,83.6-56.2,83.6-107c0-11.8-1.9-23.2-5.4-33.9c-0.4-1.2,1.1-2.1,1.9-1.2l0,0
	c36.1,36.1,36.1,94.8,0,130.9c-26.4,26.4-65.9,34.4-100.5,20.2c-0.9-0.4-2.1-0.2-2.7,0.7c-0.8,1.1-0.5,2.5,0.6,3.1
	c17.7,10.6,37.3,15.8,56.8,15.8c28.5,0,56.6-11.1,77.9-32.4c8.4-8.4,15.1-17.8,20.2-27.8c0.6-1.1,2.2-0.7,2.2,0.5l0,0
	C464.7,237.2,423.2,278.7,372.2,278.7z"/>
</svg>
