<?xml version="1.0" encoding="utf-8"?>
<!-- Generator: Adobe Illustrator 19.2.1, SVG Export Plug-In . SVG Version: 6.00 Build 0)  -->
<svg version="1.1" id="Layer_1" xmlns="http://www.w3.org/2000/svg" xmlns:xlink="http://www.w3.org/1999/xlink" x="0px" y="0px"
	 width="478px" height="313.2px" viewBox="0 0 478 313.2" style="enable-background:new 0 0 478 313.2;" xml:space="preserve">
<style type="text/css">
	.Arched_x0020_Green{fill:url(#SVGID_1_);stroke:#FFFFFF;stroke-width:0.25;stroke-miterlimit:1;}
	.st0{opacity:0.7;}
	.st1{opacity:0.45;}
	.st2{opacity:0.2;}
</style>
<linearGradient id="SVGID_1_" gradientUnits="userSpaceOnUse" x1="-95.6313" y1="347.1812" x2="-94.9242" y2="346.4741">
	<stop  offset="0" style="stop-color:#20AC4B"/>
	<stop  offset="0.9831" style="stop-color:#19361A"/>
</linearGradient>
<path d="M101.3,60c22.7,0,67.8,9.3,67.8,41.3v19.4h-32.8v-10.4c0-13.4-21.2-19.4-35-19.4c-36.9,0-64.4,27.5-64.4,67.4
	c0,42.8,31.3,67,66.3,67c35.4,0,58.4-26.1,58.4-26.1l15.6,25.7c0,0-26.8,32.4-76.7,32.4C41.3,257.4,0,215.3,0,158.7
	C0,103.2,40.6,60,101.3,60z"/>
<path d="M218.5,103.6c0-5.6-3-8.2-8.2-8.2h-15.3V64.5h35.4c16.8,0,23.8,7.1,23.8,23.8v125.5c0,5.6,3,8.2,8.2,8.2h15.3v30.9h-35.4
	c-16.8,0-23.8-7.1-23.8-23.8V103.6z"/>
<path d="M402.1,60c22.7,0,67.8,9.3,67.8,41.3v19.4h-32.8v-10.4c0-13.4-21.2-19.4-35-19.4c-36.9,0-64.4,27.5-64.4,67.4
	c0,42.8,31.3,67,66.3,67c35.4,0,58.4-26.1,58.4-26.1L478,225c0,0-26.8,32.4-76.7,32.4c-59.2,0-100.5-42.1-100.5-98.7
	C300.8,103.2,341.4,60,402.1,60z"/>
<circle cx="235.5" cy="18.2" r="18.2"/>
<path class="st0" d="M191.3,4.3c7.7-0.1,13.9,6.1,14,13.8c0.1,7.7-6.1,13.9-13.8,14c-7.7,0.1-13.9-6.1-14-13.8
	C177.5,10.6,183.7,4.4,191.3,4.3z"/>
<path class="st1" d="M153.1,5.9c6.8-0.1,12.4,5.3,12.5,12.1c0.1,6.8-5.3,12.4-12.1,12.5c-6.8,0.1-12.4-5.3-12.5-12.1
	C140.9,11.6,146.3,6,153.1,5.9z"/>
<ellipse transform="matrix(1 -2.453166e-03 2.453166e-03 1 -4.428776e-02 0.293)" class="st2" cx="119.4" cy="18.2" rx="9.6" ry="9.6"/>
</svg>
