<?xml version="1.0" encoding="utf-8"?>
<!-- Generator: Adobe Illustrator 19.2.1, SVG Export Plug-In . SVG Version: 6.00 Build 0)  -->
<svg version="1.1" id="Warstwa_1" xmlns="http://www.w3.org/2000/svg" xmlns:xlink="http://www.w3.org/1999/xlink" x="0px" y="0px"
	 width="265.7px" height="35px" viewBox="0 0 265.7 35" style="enable-background:new 0 0 265.7 35;" xml:space="preserve">
<style type="text/css">
	.st0{fill:#231F20;}
</style>
<g>
	<path class="st0" d="M0,29.3l6-5.7c1.6,2,3.2,3.1,5.3,3.1c2.3,0,3.8-1.6,3.8-4.7V0.6h9.3v21.5c0,4.3-1.1,7.3-3.3,9.5
		C19,33.8,15.8,35,11.9,35C6,35,2.4,32.5,0,29.3"/>
	<polygon class="st0" points="27.7,0.6 54.9,0.6 54.9,8.5 36.9,8.5 36.9,13.7 53.2,13.7 53.2,21.1 36.9,21.1 36.9,26.5 55.1,26.5 
		55.1,34.4 27.7,34.4 	"/>
	<polygon class="st0" points="65.8,8.8 55.7,8.8 55.7,0.6 85.4,0.6 85.4,8.8 75.2,8.8 75.2,34.4 65.8,34.4 	"/>
	<path class="st0" d="M87,0.6h17.4c4.3,0,7.3,1.1,9.2,3c1.4,1.4,2.2,3.2,2.2,5.5v0.1c0,3.9-2.2,6.2-5.2,7.5c4.1,1.4,6.7,3.7,6.7,8.3
		v0.1c0,5.8-4.7,9.3-12.8,9.3H87V0.6z M106.6,11c0-1.9-1.5-2.9-4.3-2.9h-6.1v5.9h5.9C104.9,14.1,106.6,13.1,106.6,11L106.6,11z
		 M103.3,20.7h-7.2v6.2h7.3c2.9,0,4.5-1.1,4.5-3.1v-0.1C107.9,21.9,106.5,20.7,103.3,20.7"/>
	<path class="st0" d="M119.2,0.6h16c5.2,0,8.8,1.4,11,3.6c2,2,3,4.5,3,7.9v0.1c0,5.2-2.8,8.7-7,10.4l8.1,11.8h-10.8l-6.8-10.3h-4.2
		v10.3h-9.4V0.6z M134.8,16.8c3.1,0,5-1.5,5-4v-0.1c0-2.7-2-4.1-5.1-4.1h-6.2v8.2H134.8z"/>
	<path class="st0" d="M162.6,0.3h9l14.4,34.1H176l-2.4-6.1h-13.1l-2.4,6.1h-9.8L162.6,0.3z M170.9,21l-3.8-9.6l-3.8,9.6H170.9z"/>
	<rect x="187.2" y="0.6" class="st0" width="9.4" height="33.9"/>
	<polygon class="st0" points="200.4,0.6 209.1,0.6 223,18.5 223,0.6 232.3,0.6 232.3,34.4 224.2,34.4 209.6,15.9 209.6,34.4 
		200.4,34.4 	"/>
	<path class="st0" d="M233.3,29.4l5.2-6.2c3.4,2.7,7.1,4.1,11,4.1c2.6,0,3.9-0.9,3.9-2.3v-0.1c0-1.5-1.1-2.2-5.8-3.3
		c-7.2-1.6-12.8-3.7-12.8-10.6v-0.1c0-6.3,5-10.8,13.1-10.8c5.8,0,10.3,1.5,13.9,4.5l-4.7,6.6c-3.1-2.2-6.5-3.3-9.5-3.3
		c-2.3,0-3.4,0.9-3.4,2.2v0.1c0,1.5,1.2,2.2,5.9,3.3c7.7,1.7,12.6,4.2,12.6,10.5V24c0,6.9-5.5,11-13.7,11
		C243.2,35,237.5,33.1,233.3,29.4"/>
</g>
</svg>
