<?xml version="1.0" encoding="UTF-8" standalone="no"?>
<svg width="720px" height="868px" viewBox="0 0 720 868" version="1.1" xmlns="http://www.w3.org/2000/svg" xmlns:xlink="http://www.w3.org/1999/xlink" xmlns:sketch="http://www.bohemiancoding.com/sketch/ns">
    <!-- Generator: Sketch 3.5.1 (25234) - http://www.bohemiancoding.com/sketch -->
    <title>berlin-gray</title>
    <desc>Created with Sketch.</desc>
    <defs></defs>
    <g id="Page-1" stroke="none" stroke-width="1" fill="none" fill-rule="evenodd" sketch:type="MSPage">
        <g id="berlin-gray" sketch:type="MSArtboardGroup" stroke="#CFD0D1" stroke-width="6">
            <rect id="Rectangle-7" sketch:type="MSShapeGroup" x="263" y="442" width="200" height="50"></rect>
            <rect id="Rectangle-7" sketch:type="MSShapeGroup" x="248" y="412" width="230" height="30"></rect>
            <rect id="Rectangle-7" sketch:type="MSShapeGroup" x="83" y="442" width="560" height="50" rx="2"></rect>
            <rect id="Rectangle-7" sketch:type="MSShapeGroup" x="61" y="522" width="604" height="36" rx="2"></rect>
            <rect id="Rectangle-7" sketch:type="MSShapeGroup" x="75" y="558" width="576" height="18" rx="2"></rect>
            <rect id="Rectangle-7" sketch:type="MSShapeGroup" x="104" y="587" width="40.3996314" height="270" rx="2"></rect>
            <rect id="Rectangle-7" sketch:type="MSShapeGroup" x="185" y="587" width="40.3996314" height="270" rx="2"></rect>
            <rect id="Rectangle-7" sketch:type="MSShapeGroup" x="276" y="587" width="40.3996314" height="270" rx="2"></rect>
            <rect id="Rectangle-7" sketch:type="MSShapeGroup" x="584" y="587" width="40.3996314" height="270" rx="2"></rect>
            <rect id="Rectangle-7" sketch:type="MSShapeGroup" x="503" y="587" width="40.3996314" height="270" rx="2"></rect>
            <rect id="Rectangle-7" sketch:type="MSShapeGroup" x="412" y="587" width="40.3996314" height="270" rx="2"></rect>
            <path d="M59.161517,520.257402 C59.7119571,521.219812 61.0611412,522 62.159987,522 L663.840013,522 C664.945582,522 666.283203,521.228275 666.838483,520.257402 L682.00334,493.742598 C682.55378,492.780188 682.106645,492 681.004723,492 L44.9952773,492 C43.8933161,492 43.4413796,492.771725 43.99666,493.742598 L59.161517,520.257402 Z" id="Rectangle-7" sketch:type="MSShapeGroup"></path>
            <rect id="Rectangle-7" sketch:type="MSShapeGroup" x="100" y="577" width="48.4795576" height="10" rx="1"></rect>
            <rect id="Rectangle-7" sketch:type="MSShapeGroup" x="181" y="577" width="48.4795576" height="10" rx="1"></rect>
            <rect id="Rectangle-7" sketch:type="MSShapeGroup" x="272" y="577" width="48.4795576" height="10" rx="1"></rect>
            <rect id="Rectangle-7" sketch:type="MSShapeGroup" x="580" y="577" width="48.4795576" height="10" rx="1"></rect>
            <rect id="Rectangle-7" sketch:type="MSShapeGroup" x="499" y="577" width="48.4795576" height="10" rx="1"></rect>
            <rect id="Rectangle-7" sketch:type="MSShapeGroup" x="408" y="577" width="48.4795576" height="10" rx="1"></rect>
            <rect id="Rectangle-7" sketch:type="MSShapeGroup" x="49" y="857" width="628" height="18" rx="2"></rect>
            <g id="Group" sketch:type="MSLayerGroup" transform="translate(265.000000, 447.000000)">
                <path d="M196.789511,0.0542923977 L152.957151,36.5389708 C150.057233,38.9527719 145.35593,38.9527719 142.456011,36.5389708 L102.5111,3.29008187 C100.362367,1.50154386 96.8801598,1.49756725 94.725525,3.28119298 L54.5490471,36.5389708 C51.6494094,38.9527719 46.947826,38.9527719 44.0481883,36.5389708 L0.215828816,0.0542923977" id="Stroke-1" sketch:type="MSShapeGroup"></path>
                <path d="M0.215772611,39.8203275 L44.0481321,3.33564912 C46.9480508,0.921847953 51.6493532,0.921847953 54.5492719,3.33564912 L94.4941835,36.584538 C96.6429167,38.373076 100.125124,38.3770526 102.279758,36.5934269 L142.456236,3.33564912 C145.356155,0.922081871 150.057457,0.922081871 152.957376,3.33564912 L196.789736,39.8203275" id="Stroke-3" sketch:type="MSShapeGroup"></path>
            </g>
            <path d="M315.914752,375 L293,410.163855" id="Line" stroke-linecap="square" sketch:type="MSShapeGroup"></path>
            <path d="M373.248696,344.127267 L373.248696,411.198156 L355.213913,411.198156 L355.213913,344.127267 L338.982609,311.498186 L389.48,311.498186 L373.248696,344.127267 Z" id="Rectangle-7" sketch:type="MSShapeGroup"></path>
            <path d="M318,411.381802 L341.445217,411.381802 L341.445217,384.190901 L318,357 L318,411.381802 Z" id="Rectangle-7" sketch:type="MSShapeGroup"></path>
            <path d="M289,411.381802 L317.855652,411.381802 L317.855652,375.127267 L289,357 L289,411.381802 Z" id="Rectangle-7" sketch:type="MSShapeGroup"></path>
            <path d="M412,375 L434.914752,410.163855" id="Line" stroke-linecap="square" sketch:type="MSShapeGroup"></path>
            <path d="M408.445217,411.381802 L385,411.381802 L385,384.190901 L408.445217,357 L408.445217,411.381802 Z" id="Rectangle-7" sketch:type="MSShapeGroup"></path>
            <path d="M437.855652,411.381802 L409,411.381802 L409,375.127267 L437.855652,357 L437.855652,411.381802 Z" id="Rectangle-7" sketch:type="MSShapeGroup"></path>
        </g>
    </g>
</svg>