<?xml version="1.0" encoding="utf-8"?>
<!-- Generator: Adobe Illustrator 19.2.1, SVG Export Plug-In . SVG Version: 6.00 Build 0)  -->
<svg version="1.1" id="Warstwa_1" xmlns="http://www.w3.org/2000/svg" xmlns:xlink="http://www.w3.org/1999/xlink" x="0px" y="0px"
	 width="100px" height="100px" viewBox="0 0 100 100" style="enable-background:new 0 0 100 100;" xml:space="preserve">
<style type="text/css">
	.st0{fill:none;stroke:#666666;stroke-width:4;stroke-miterlimit:10;}
	.st1{fill:#666666;}
</style>
<path class="st0" d="M86.2,96.6H13.5c-5.5,0-10-4.5-10-10V13.9c0-5.5,4.5-10,10-10h72.6c5.5,0,10,4.5,10,10v72.6
	C96.2,92.1,91.7,96.6,86.2,96.6z"/>
<g>
	<path class="st1" d="M64.6,73.4H42.4c-2.7,0-4.8-2.2-4.8-4.8V27c0-1.9,1.6-3.6,3.8-3.6c1.9,0,3.6,1.6,3.6,3.6v39.9h19.7
		c1.8,0,3.2,1.5,3.2,3.2C67.8,72,66.4,73.4,64.6,73.4z"/>
</g>
</svg>
