<?xml version="1.0" encoding="utf-8"?>
<!-- Generator: Adobe Illustrator 19.2.1, SVG Export Plug-In . SVG Version: 6.00 Build 0)  -->
<svg version="1.1" id="Warstwa_1" xmlns="http://www.w3.org/2000/svg" xmlns:xlink="http://www.w3.org/1999/xlink" x="0px" y="0px"
	 width="100px" height="100px" viewBox="0 0 100 100" style="enable-background:new 0 0 100 100;" xml:space="preserve">
<style type="text/css">
	.st0{fill:none;stroke:#666666;stroke-width:4;stroke-miterlimit:10;}
	.st1{fill:#666666;}
</style>
<path class="st0" d="M86.2,96.6H13.5c-5.5,0-10-4.5-10-10V13.9c0-5.5,4.5-10,10-10h72.6c5.5,0,10,4.5,10,10v72.6
	C96.2,92.1,91.7,96.6,86.2,96.6z"/>
<g>
	<path class="st1" d="M30.4,75.3c-7,0-12.9-2.2-16.3-6.2c-0.4-0.6-0.7-1.3-0.7-2c0-1.6,1.4-3.4,3.3-3.4c0.7,0,1.6,0.3,2.2,0.8
		c3.1,2.7,6.9,4.2,11.6,4.2c6.5,0,10.8-4.2,10.8-9.7c0-5.9-4.3-9.8-10.7-9.8c-3.6,0-6.9,1-9.7,3.3c-0.9,0.6-1.9,1-3,1
		c-2.1,0-3.8-1.6-3.8-3.6V29.7c0-2.7,2.2-4.8,4.9-4.8h23.7c1.8,0,3.2,1.4,3.2,3.3c0,1.7-1.4,3.2-3.2,3.2H21.4v15.8
		c2.4-2.4,6.5-4.4,11.4-4.4c8.2,0,15.8,5.8,15.8,15.9C48.6,69,41,75.3,30.4,75.3z"/>
	<path class="st1" d="M67.6,75.3c-5.3,0-9.7-1.5-12.7-4.7c-0.4-0.5-0.7-1.2-0.7-1.9c0-1.9,1.6-3.3,3.3-3.3c0.7,0,1.4,0.2,1.9,0.6
		c2.1,1.7,4.6,2.8,8.2,2.8c9,0,13.5-8.8,13.5-18c0-0.6,0-1.1-0.1-1.7c-2.2,3.4-7.5,7.4-13.7,7.4C58.4,56.4,51,51,51,40.5
		c0-8.9,6.8-16.4,17.8-16.4c14.1,0,19.7,12,19.7,25.6C88.5,63.5,81.7,75.3,67.6,75.3z M69.1,30.6c-7.1,0-10.7,5.2-10.7,9.6
		c0,6.8,4.9,9.9,10.8,9.9c4.6,0,9-2.7,11.7-6.7C80.4,37.6,77.3,30.6,69.1,30.6z"/>
</g>
</svg>
