<?xml version="1.0" encoding="UTF-8" standalone="no"?>
<svg width="840px" height="601px" viewBox="0 0 840 601" version="1.1" xmlns="http://www.w3.org/2000/svg" xmlns:xlink="http://www.w3.org/1999/xlink">
    <!-- Generator: Sketch 3.7 (28169) - http://www.bohemiancoding.com/sketch -->
    <title>krakow-gray</title>
    <desc>Created with Sketch.</desc>
    <defs></defs>
    <g id="Page-1" stroke="none" stroke-width="1" fill="none" fill-rule="evenodd">
        <g id="krakow-gray">
            <path d="M384.666709,436.14796 C395.551952,430.057163 409.314072,433.944346 415.40525,444.830942 C421.495698,455.716807 417.608738,469.479713 406.722764,475.57124" id="Stroke-3" stroke="#D4D5D5" stroke-width="6" stroke-linejoin="round"></path>
            <path d="M407.325309,477.030066 C417.289572,469.525948 431.450466,471.520667 438.954156,481.48623 C446.457845,491.451062 444.46397,505.612766 434.499707,513.116884" id="Stroke-7" stroke="#D4D5D5" stroke-width="6" stroke-linejoin="round"></path>
            <path d="M435.207789,514.401948 C442.842942,504.537181 457.027939,502.730174 466.892142,510.365764 C476.755615,518.002084 478.563249,532.188622 470.928096,542.05339" id="Stroke-11" stroke="#D4D5D5" stroke-width="6" stroke-linejoin="round"></path>
            <polyline id="Stroke-17" stroke="#D4D5D5" stroke-width="6" stroke-linejoin="round" points="295.52567 247.052213 315.213908 242.251301 316.727938 260.845066"></polyline>
            <polyline id="Stroke-19" stroke="#D4D5D5" stroke-width="6" stroke-linejoin="round" points="315.624515 258.49267 335.312752 253.691758 336.826783 272.285523"></polyline>
            <polyline id="Stroke-21" stroke="#D4D5D5" stroke-width="6" stroke-linejoin="round" points="336.826783 271.851812 356.51502 267.0509 358.02905 285.644665"></polyline>
            <polyline id="Stroke-23" stroke="#D4D5D5" stroke-width="6" stroke-linejoin="round" points="357.655984 284.753067 377.344221 279.952155 378.858252 298.54592"></polyline>
            <polyline id="Stroke-25" stroke="#D4D5D5" stroke-width="6" stroke-linejoin="round" points="379.428807 297.890387 398.667875 291.522769 401.671103 309.935395"></polyline>
            <polyline id="Stroke-27" stroke="#D4D5D5" stroke-width="6" stroke-linejoin="round" points="402.175196 307.62339 421.328812 301.003055 424.575249 319.374778"></polyline>
            <polyline id="Stroke-29" stroke="#D4D5D5" stroke-width="6" stroke-linejoin="round" points="424.716646 320.057336 440.832707 307.769835 449.670029 324.198698"></polyline>
            <polyline id="Stroke-31" stroke="#D4D5D5" stroke-width="6" stroke-linejoin="round" points="450.002852 324.853427 464.664042 310.861906 475.258602 326.215621"></polyline>
            <polyline id="Stroke-33" stroke="#D4D5D5" stroke-width="5" stroke-linejoin="round" points="667.232174 378.479095 683.957352 376.176148 683.621388 392.118565"></polyline>
            <polyline id="Stroke-35" stroke="#D4D5D5" stroke-width="5" stroke-linejoin="round" points="684.003949 390.01896 700.729128 387.716012 700.393164 403.658429"></polyline>
            <polyline id="Stroke-37" stroke="#D4D5D5" stroke-width="5" stroke-linejoin="round" points="700.430412 403.289285 717.15559 400.986338 716.819626 416.928754"></polyline>
            <polyline id="Stroke-39" stroke="#D4D5D5" stroke-width="5" stroke-linejoin="round" points="716.847745 417.191844 733.022234 412.35076 735.135157 428.155862"></polyline>
            <polyline id="Stroke-41" stroke="#D4D5D5" stroke-width="5" stroke-linejoin="round" points="735.157725 427.212698 750.23814 419.619471 755.078216 434.811038"></polyline>
            <polyline id="Stroke-43" stroke="#D4D5D5" stroke-width="5" stroke-linejoin="round" points="755.031766 436.129554 764.461407 422.124155 776.119367 432.999064"></polyline>
            <polyline id="Stroke-45" stroke="#D4D5D5" stroke-width="5" stroke-linejoin="round" points="777.994706 432.532996 777.371711 415.660051 793.19782 417.586844"></polyline>
            <polyline id="Stroke-47" stroke="#D4D5D5" stroke-width="5" stroke-linejoin="round" points="790.567073 417.449602 785.500586 404.660317 798.180316 401.836595"></polyline>
            <polyline id="Stroke-49" stroke="#D4D5D5" stroke-width="4" stroke-linejoin="round" points="798.311634 400.473598 789.025874 390.326896 799.868756 383.1741"></polyline>
            <polyline id="Stroke-51" stroke="#D4D5D5" stroke-width="4" stroke-linejoin="round" points="799.472683 384.076288 788.946046 375.223123 798.766428 366.72128"></polyline>
            <polyline id="Stroke-53" stroke="#D4D5D5" stroke-width="4" stroke-linejoin="round" points="796.488444 366.871596 786.953631 360.222775 794.566144 352.323511"></polyline>
            <polyline id="Stroke-55" stroke="#D4D5D5" stroke-width="4" stroke-linejoin="round" points="794.213235 352.426132 783.309734 348.397982 788.683701 338.833408"></polyline>
            <polyline id="Stroke-57" stroke="#D4D5D5" stroke-width="4" stroke-linejoin="round" points="788.587075 339.605659 777.683573 335.577509 783.057541 326.012936"></polyline>
            <polyline id="Stroke-59" stroke="#D4D5D5" stroke-width="4" stroke-linejoin="round" points="782.559146 327.176023 771.655644 323.147873 777.029612 313.583299"></polyline>
            <polyline id="Stroke-61" stroke="#D4D5D5" stroke-width="4" stroke-linejoin="round" points="774.797275 315.011229 763.893773 310.983079 769.267741 301.418506"></polyline>
            <path d="M378.220577,420.502596 C396.436414,467.625012 422.042006,515.379222 489.49487,554.250321 C497.116877,558.64221 504.814111,562.541809 512.561739,565.972493" id="Stroke-63" stroke="#D4D5D5" stroke-width="6" stroke-linejoin="round"></path>
            <path d="M478.703186,327.819139 C433.120866,327.401351 401.624214,318.514587 279.473443,236.990384 L276.153239,233.072524 L274.051271,230.177223 C270.483477,225.261638 274.875845,207.019926 281.114555,188.820576 C288.07778,174.528861 310.690368,177.355505 310.690368,177.355505 C301.142409,164.206864 289.351523,167.262853 289.343489,167.268696 C293.085839,158.422105 297.167075,148.772805 295.200954,141.282564 C295.200954,141.282564 236.029609,203.687846 207.390845,195.916402 C205.055163,195.283146 170.726916,192.875751 167.664529,208.563989 L162.69737,221.136345 L101.085171,227.714318 C90.3554946,228.859583 80.7732089,249.550323 75.1699089,258.77234 L72.9561964,262.41557 C71.0565375,265.541677 73.4484571,269.514317 77.0995125,269.298849 C77.0995125,269.298849 90.3321232,267.050681 92.3274589,267.050681 C92.3274589,267.050681 101.740302,291.523427 134.548675,289.248964 C164.797877,287.15272 196.020645,277.775858 205.626302,274.439396 L259.023443,256.046491 C329.992977,288.262926 348.612702,338.491728 367.807948,392.119076" id="Stroke-65" stroke="#D4D5D5" stroke-width="6" stroke-linejoin="round"></path>
            <path d="M652.097348,582.143817 C735.509977,566.892357 805.176553,510.176883 823.497562,446.080727 C841.916439,381.641284 809.991068,310.989799 746.213361,256.046272 L757.496648,244.547602 C739.816162,239.450879 724.997216,234.796777 724.997216,234.796777 C728.061064,251.341773 731.428011,270.687118 731.428011,270.687118 L738.867428,263.932389 C849.881714,385.99154 779.056791,432.997822 779.056791,432.997822 C750.198189,449.89414 709.027957,412.43125 664.801911,378.075477" id="Stroke-67" stroke="#D4D5D5" stroke-width="6" stroke-linejoin="round"></path>
            <path d="M507.191277,450.28337 L516.994861,441.358625 C555.041356,406.721649 611.243068,401.306471 655.130229,427.771015 C655.857665,428.209984 657.260681,427.973335 657.289895,425.889507 C657.433045,415.782247 659.220229,383.465748 675.259602,351.342074 C691.730617,318.354338 720.405899,292.894093 728.563988,286.056099 C729.398786,285.356376 729.057709,284.00733 727.990658,283.78821 C717.731331,281.678818 683.043018,270.215938 688.741995,212.12147 C688.847167,211.055088 687.877252,210.200521 686.830651,210.429866 C674.803129,213.065145 616.062695,222.470492 610.009495,156.470917 C609.688868,152.974498 605.860336,150.941797 602.808174,152.677956 C584.834815,162.90354 535.332668,180.048194 509.203411,79.6621688 C508.644688,77.5169872 505.635617,77.421305 504.956384,79.5314274 L502.041529,88.5810697 C464.079026,206.455035 465.88812,333.53714 507.191277,450.28337 L507.191277,450.28337 L507.191277,450.28337 Z" id="Stroke-71" stroke="#D4D5D5" stroke-width="6"></path>
            <path d="M507.191277,450.28315 C507.191277,450.28315 499.385951,234.979815 608.395406,152.935567" id="Stroke-73" stroke="#D4D5D5" stroke-width="6"></path>
            <path d="M508.875189,444.437914 C508.875189,444.437914 552.308067,277.657899 688.976148,209.914131" id="Stroke-75" stroke="#D4D5D5" stroke-width="6"></path>
            <path d="M508.336989,446.573235 C508.336989,446.573235 579.462819,293.421733 727.320701,287.108896" id="Stroke-77" stroke="#D4D5D5" stroke-width="6"></path>
            <path d="M199.168557,195.403004 L193.282609,213.080119 C191.902964,214.776835 190.049318,216.024357 187.957575,216.661264 L162.697443,221.136418" id="Stroke-79" stroke="#D4D5D5" stroke-width="6" stroke-linejoin="round"></path>
            <path d="M176.269377,215.286361 C176.269377,218.540289 173.632058,219.351762 170.378317,219.351762 C167.124576,219.351762 164.487256,218.540289 164.487256,215.286361 C164.487256,212.032434 167.124576,209.394964 170.378317,209.394964 C173.632058,209.394964 176.269377,212.032434 176.269377,215.286361" id="Fill-81" fill="#D4D5D5"></path>
            <path d="M166.678181,253.691831 L90.0644473,267.273599" id="Stroke-83" stroke="#D4D5D5" stroke-width="6" stroke-linejoin="round"></path>
            <path d="M81.9828264,246.897222 C81.9828264,246.897222 115.617964,245.968885 116.42793,226.075741" id="Stroke-85" stroke="#D4D5D5" stroke-width="6" stroke-linejoin="round"></path>
            <path d="M83.0300125,182.040868 C83.6004214,180.720307 83.9203179,179.266082 83.9203179,177.736627 C83.9203179,171.7364 79.0561393,166.871943 73.0562554,166.871943 C67.1637339,166.871943 62.3784339,171.566217 62.2082607,177.417443 C60.6942304,176.746937 59.0239036,176.367129 57.2622821,176.367129 C50.5057482,176.367129 45.0288,181.844391 45.0288,188.601311 C45.0288,195.358231 50.5057482,200.835492 57.2622821,200.835492 C58.7646268,200.835492 60.1975875,200.551367 61.5275679,200.055426 C63.1584554,206.989103 69.3679518,212.156675 76.7993357,212.156675 C85.4715964,212.156675 92.5020143,205.125855 92.5020143,196.453099 C92.5020143,189.995642 88.6011768,184.453375 83.0300125,182.040868 L83.0300125,182.040868 Z" id="Stroke-87" stroke="#D4D5D5" stroke-width="6" stroke-linejoin="round"></path>
            <path d="M22.8458086,148.968917 C22.4046729,148.374372 21.8612871,147.841181 21.2090782,147.408054 C18.1846693,145.400188 14.1056246,146.224808 12.0978729,149.24939 C10.0901211,152.273972 10.9139639,156.35398 13.9383729,158.361847 C16.0629818,159.772247 18.7054139,159.780281 20.7869318,158.614565 C21.4340282,161.428061 23.1072764,164.010021 25.701505,165.733032 C31.0783943,169.302492 38.3308407,167.837312 41.9008264,162.459385 C45.4700818,157.082188 44.0049854,149.829327 38.6273657,146.259867 C33.4476729,142.821149 26.5370336,144.06648 22.8458086,148.968917 L22.8458086,148.968917 Z" id="Stroke-89" stroke="#D4D5D5" stroke-width="6" stroke-linejoin="round"></path>
            <path d="M29.3883479,112.553419 C28.6528782,112.553419 27.9590389,112.727984 27.3396961,113.030369 C26.4639979,110.513415 24.0779211,108.704947 21.2631246,108.704947 C17.7070157,108.704947 14.8242961,111.587832 14.8242961,115.144144 C14.8242961,118.699726 17.7070157,121.58261 21.2631246,121.58261 C22.9159229,121.58261 24.4182675,120.954467 25.558355,119.931178 C26.4062996,121.134876 27.8042032,121.923706 29.3883479,121.923706 C31.9760032,121.923706 34.0728586,119.826001 34.0728586,117.238198 C34.0728586,114.651125 31.9760032,112.553419 29.3883479,112.553419 L29.3883479,112.553419 Z" id="Stroke-91" stroke="#D4D5D5" stroke-width="6" stroke-linejoin="round"></path>
            <path d="M379.597958,356.927215 C379.597958,356.927215 378.876365,422.376069 300.682138,425.781189 L276.296243,414.076547 C265.92152,428.209765 271.255318,448.313995 287.27205,455.444149 L298.844559,460.595653 C298.844559,460.595653 383.186933,448.452771 390.458368,387.552841" id="Stroke-95" stroke="#D4D5D5" stroke-width="6" stroke-linejoin="round"></path>
            <path d="M417.374366,447.000884 C427.062554,441.579863 439.310643,445.039763 444.731354,454.728504 C450.152064,464.417246 446.693093,476.666766 437.004905,482.087786" id="Stroke-97" stroke="#D4D5D5" stroke-width="6" stroke-linejoin="round"></path>
            <path d="M439.407999,483.714019 C448.105092,475.044184 461.20916,474.090283 468.677062,481.582715 C476.144964,489.075147 475.148026,502.177043 466.450933,510.846878" id="Stroke-99" stroke="#D4D5D5" stroke-width="6" stroke-linejoin="round"></path>
            <path d="M588.958192,426.659275 C540.157919,426.608877 499.733381,465.705669 498.332556,514.488281 C497.678156,537.273075 505.45719,558.472903 518.776714,574.43431 L488.355147,574.43431 C471.01866,574.43431 458.579217,587.663295 454.358483,603.984789 C452.948894,609.435756 459.630931,608.763059 459.630931,608.763059 L568.996801,608.763059 C577.463831,608.763059 602.333953,607.302261 608.727499,605.841463 L611.802303,604.984705 C650.71281,594.826317 679.429722,559.32747 679.429722,517.23239" id="Stroke-105" stroke="#D4D5D5" stroke-width="6" stroke-linecap="round"></path>
            <path d="M465.873878,582.644724 C465.873878,582.644724 434.784766,580.998405 434.784766,605.844385 C434.784766,605.844385 445.329662,601.213656 455.206282,603.374176" id="Stroke-107" stroke="#D4D5D5" stroke-width="6" stroke-linecap="round"></path>
        </g>
    </g>
</svg>