<?xml version="1.0" encoding="UTF-8" standalone="no"?>
<svg width="840px" height="868px" viewBox="0 0 840 868" version="1.1" xmlns="http://www.w3.org/2000/svg" xmlns:xlink="http://www.w3.org/1999/xlink">
    <!-- Generator: Sketch 3.6.1 (26313) - http://www.bohemiancoding.com/sketch -->
    <title>krakow-white</title>
    <desc>Created with Sketch.</desc>
    <defs></defs>
    <g id="Page-1" stroke="none" stroke-width="1" fill="none" fill-rule="evenodd">
        <g id="krakow-white">
            <path d="M384.666709,703.14796 C395.551952,697.057163 409.314072,700.944346 415.40525,711.830942 C421.495698,722.716807 417.608738,736.479713 406.722764,742.57124" id="Stroke-3" stroke="#FEFEFE" stroke-width="6" stroke-linejoin="round"></path>
            <path d="M407.325309,744.030066 C417.289572,736.525948 431.450466,738.520667 438.954156,748.48623 C446.457845,758.451062 444.46397,772.612766 434.499707,780.116884" id="Stroke-7" stroke="#FEFEFE" stroke-width="6" stroke-linejoin="round"></path>
            <path d="M435.207789,781.401948 C442.842942,771.537181 457.027939,769.730174 466.892142,777.365764 C476.755615,785.002084 478.563249,799.188622 470.928096,809.05339" id="Stroke-11" stroke="#FEFEFE" stroke-width="6" stroke-linejoin="round"></path>
            <path d="M295.52567,514.052213 L315.213908,509.251301 L316.727938,527.845066" id="Stroke-17" stroke="#FEFEFE" stroke-width="6" stroke-linejoin="round"></path>
            <path d="M315.624515,525.49267 L335.312752,520.691758 L336.826783,539.285523" id="Stroke-19" stroke="#FEFEFE" stroke-width="6" stroke-linejoin="round"></path>
            <path d="M336.826783,538.851812 L356.51502,534.0509 L358.02905,552.644665" id="Stroke-21" stroke="#FEFEFE" stroke-width="6" stroke-linejoin="round"></path>
            <path d="M357.655984,551.753067 L377.344221,546.952155 L378.858252,565.54592" id="Stroke-23" stroke="#FEFEFE" stroke-width="6" stroke-linejoin="round"></path>
            <path d="M379.428807,564.890387 L398.667875,558.522769 L401.671103,576.935395" id="Stroke-25" stroke="#FEFEFE" stroke-width="6" stroke-linejoin="round"></path>
            <path d="M402.175196,574.62339 L421.328812,568.003055 L424.575249,586.374778" id="Stroke-27" stroke="#FEFEFE" stroke-width="6" stroke-linejoin="round"></path>
            <path d="M424.716646,587.057336 L440.832707,574.769835 L449.670029,591.198698" id="Stroke-29" stroke="#FEFEFE" stroke-width="6" stroke-linejoin="round"></path>
            <path d="M450.002852,591.853427 L464.664042,577.861906 L475.258602,593.215621" id="Stroke-31" stroke="#FEFEFE" stroke-width="6" stroke-linejoin="round"></path>
            <path d="M667.232174,645.479095 L683.957352,643.176148 L683.621388,659.118565" id="Stroke-33" stroke="#FEFEFE" stroke-width="5" stroke-linejoin="round"></path>
            <path d="M684.003949,657.01896 L700.729128,654.716012 L700.393164,670.658429" id="Stroke-35" stroke="#FEFEFE" stroke-width="5" stroke-linejoin="round"></path>
            <path d="M700.430412,670.289285 L717.15559,667.986338 L716.819626,683.928754" id="Stroke-37" stroke="#FEFEFE" stroke-width="5" stroke-linejoin="round"></path>
            <path d="M716.847745,684.191844 L733.022234,679.35076 L735.135157,695.155862" id="Stroke-39" stroke="#FEFEFE" stroke-width="5" stroke-linejoin="round"></path>
            <path d="M735.157725,694.212698 L750.23814,686.619471 L755.078216,701.811038" id="Stroke-41" stroke="#FEFEFE" stroke-width="5" stroke-linejoin="round"></path>
            <path d="M755.031766,703.129554 L764.461407,689.124155 L776.119367,699.999064" id="Stroke-43" stroke="#FEFEFE" stroke-width="5" stroke-linejoin="round"></path>
            <path d="M777.994706,699.532996 L777.371711,682.660051 L793.19782,684.586844" id="Stroke-45" stroke="#FEFEFE" stroke-width="5" stroke-linejoin="round"></path>
            <path d="M790.567073,684.449602 L785.500586,671.660317 L798.180316,668.836595" id="Stroke-47" stroke="#FEFEFE" stroke-width="5" stroke-linejoin="round"></path>
            <path d="M798.311634,667.473598 L789.025874,657.326896 L799.868756,650.1741" id="Stroke-49" stroke="#FEFEFE" stroke-width="4" stroke-linejoin="round"></path>
            <path d="M799.472683,651.076288 L788.946046,642.223123 L798.766428,633.72128" id="Stroke-51" stroke="#FEFEFE" stroke-width="4" stroke-linejoin="round"></path>
            <path d="M796.488444,633.871596 L786.953631,627.222775 L794.566144,619.323511" id="Stroke-53" stroke="#FEFEFE" stroke-width="4" stroke-linejoin="round"></path>
            <path d="M794.213235,619.426132 L783.309734,615.397982 L788.683701,605.833408" id="Stroke-55" stroke="#FEFEFE" stroke-width="4" stroke-linejoin="round"></path>
            <path d="M788.587075,606.605659 L777.683573,602.577509 L783.057541,593.012936" id="Stroke-57" stroke="#FEFEFE" stroke-width="4" stroke-linejoin="round"></path>
            <path d="M782.559146,594.176023 L771.655644,590.147873 L777.029612,580.583299" id="Stroke-59" stroke="#FEFEFE" stroke-width="4" stroke-linejoin="round"></path>
            <path d="M774.797275,582.011229 L763.893773,577.983079 L769.267741,568.418506" id="Stroke-61" stroke="#FEFEFE" stroke-width="4" stroke-linejoin="round"></path>
            <path d="M378.220577,687.502596 C396.436414,734.625012 422.042006,782.379222 489.49487,821.250321 C497.116877,825.64221 504.814111,829.541809 512.561739,832.972493" id="Stroke-63" stroke="#FEFEFE" stroke-width="6" stroke-linejoin="round"></path>
            <path d="M478.703186,594.819139 C433.120866,594.401351 401.624214,585.514587 279.473443,503.990384 L276.153239,500.072524 L274.051271,497.177223 C270.483477,492.261638 274.875845,474.019926 281.114555,455.820576 C288.07778,441.528861 310.690368,444.355505 310.690368,444.355505 C301.142409,431.206864 289.351523,434.262853 289.343489,434.268696 C293.085839,425.422105 297.167075,415.772805 295.200954,408.282564 C295.200954,408.282564 236.029609,470.687846 207.390845,462.916402 C205.055163,462.283146 170.726916,459.875751 167.664529,475.563989 L162.69737,488.136345 L101.085171,494.714318 C90.3554946,495.859583 80.7732089,516.550323 75.1699089,525.77234 L72.9561964,529.41557 C71.0565375,532.541677 73.4484571,536.514317 77.0995125,536.298849 C77.0995125,536.298849 90.3321232,534.050681 92.3274589,534.050681 C92.3274589,534.050681 101.740302,558.523427 134.548675,556.248964 C164.797877,554.15272 196.020645,544.775858 205.626302,541.439396 L259.023443,523.046491 C329.992977,555.262926 348.612702,605.491728 367.807948,659.119076" id="Stroke-65" stroke="#FEFEFE" stroke-width="6" stroke-linejoin="round"></path>
            <path d="M652.097348,849.143817 C735.509977,833.892357 805.176553,777.176883 823.497562,713.080727 C841.916439,648.641284 809.991068,577.989799 746.213361,523.046272 L757.496648,511.547602 C739.816162,506.450879 724.997216,501.796777 724.997216,501.796777 C728.061064,518.341773 731.428011,537.687118 731.428011,537.687118 L738.867428,530.932389 C849.881714,652.99154 779.056791,699.997822 779.056791,699.997822 C750.198189,716.89414 709.027957,679.43125 664.801911,645.075477" id="Stroke-67" stroke="#FEFEFE" stroke-width="6" stroke-linejoin="round"></path>
            <path d="M507.191277,717.28337 L516.994861,708.358625 C555.041356,673.721649 611.243068,668.306471 655.130229,694.771015 C655.857665,695.209984 657.260681,694.973335 657.289895,692.889507 C657.433045,682.782247 659.220229,650.465748 675.259602,618.342074 C691.730617,585.354338 720.405899,559.894093 728.563988,553.056099 C729.398786,552.356376 729.057709,551.00733 727.990658,550.78821 C717.731331,548.678818 683.043018,537.215938 688.741995,479.12147 C688.847167,478.055088 687.877252,477.200521 686.830651,477.429866 C674.803129,480.065145 616.062695,489.470492 610.009495,423.470917 C609.688868,419.974498 605.860336,417.941797 602.808174,419.677956 C584.834815,429.90354 535.332668,447.048194 509.203411,346.662169 C508.644688,344.516987 505.635617,344.421305 504.956384,346.531427 L502.041529,355.58107 C464.079026,473.455035 465.88812,600.53714 507.191277,717.28337 L507.191277,717.28337 L507.191277,717.28337 Z" id="Stroke-71" stroke="#FEFEFE" stroke-width="6"></path>
            <path d="M507.191277,717.28315 C507.191277,717.28315 499.385951,501.979815 608.395406,419.935567" id="Stroke-73" stroke="#FEFEFE" stroke-width="6"></path>
            <path d="M508.875189,711.437914 C508.875189,711.437914 552.308067,544.657899 688.976148,476.914131" id="Stroke-75" stroke="#FEFEFE" stroke-width="6"></path>
            <path d="M508.336989,713.573235 C508.336989,713.573235 579.462819,560.421733 727.320701,554.108896" id="Stroke-77" stroke="#FEFEFE" stroke-width="6"></path>
            <path d="M199.168557,462.403004 L193.282609,480.080119 C191.902964,481.776835 190.049318,483.024357 187.957575,483.661264 L162.697443,488.136418" id="Stroke-79" stroke="#FEFEFE" stroke-width="6" stroke-linejoin="round"></path>
            <path d="M176.269377,482.286361 C176.269377,485.540289 173.632058,486.351762 170.378317,486.351762 C167.124576,486.351762 164.487256,485.540289 164.487256,482.286361 C164.487256,479.032434 167.124576,476.394964 170.378317,476.394964 C173.632058,476.394964 176.269377,479.032434 176.269377,482.286361" id="Fill-81" fill="#FEFEFE"></path>
            <path d="M166.678181,520.691831 L90.0644473,534.273599" id="Stroke-83" stroke="#FEFEFE" stroke-width="6" stroke-linejoin="round"></path>
            <path d="M81.9828264,513.897222 C81.9828264,513.897222 115.617964,512.968885 116.42793,493.075741" id="Stroke-85" stroke="#FEFEFE" stroke-width="6" stroke-linejoin="round"></path>
            <path d="M83.0300125,449.040868 C83.6004214,447.720307 83.9203179,446.266082 83.9203179,444.736627 C83.9203179,438.7364 79.0561393,433.871943 73.0562554,433.871943 C67.1637339,433.871943 62.3784339,438.566217 62.2082607,444.417443 C60.6942304,443.746937 59.0239036,443.367129 57.2622821,443.367129 C50.5057482,443.367129 45.0288,448.844391 45.0288,455.601311 C45.0288,462.358231 50.5057482,467.835492 57.2622821,467.835492 C58.7646268,467.835492 60.1975875,467.551367 61.5275679,467.055426 C63.1584554,473.989103 69.3679518,479.156675 76.7993357,479.156675 C85.4715964,479.156675 92.5020143,472.125855 92.5020143,463.453099 C92.5020143,456.995642 88.6011768,451.453375 83.0300125,449.040868 L83.0300125,449.040868 Z" id="Stroke-87" stroke="#FEFEFE" stroke-width="6" stroke-linejoin="round"></path>
            <path d="M22.8458086,415.968917 C22.4046729,415.374372 21.8612871,414.841181 21.2090782,414.408054 C18.1846693,412.400188 14.1056246,413.224808 12.0978729,416.24939 C10.0901211,419.273972 10.9139639,423.35398 13.9383729,425.361847 C16.0629818,426.772247 18.7054139,426.780281 20.7869318,425.614565 C21.4340282,428.428061 23.1072764,431.010021 25.701505,432.733032 C31.0783943,436.302492 38.3308407,434.837312 41.9008264,429.459385 C45.4700818,424.082188 44.0049854,416.829327 38.6273657,413.259867 C33.4476729,409.821149 26.5370336,411.06648 22.8458086,415.968917 L22.8458086,415.968917 Z" id="Stroke-89" stroke="#FEFEFE" stroke-width="6" stroke-linejoin="round"></path>
            <path d="M29.3883479,379.553419 C28.6528782,379.553419 27.9590389,379.727984 27.3396961,380.030369 C26.4639979,377.513415 24.0779211,375.704947 21.2631246,375.704947 C17.7070157,375.704947 14.8242961,378.587832 14.8242961,382.144144 C14.8242961,385.699726 17.7070157,388.58261 21.2631246,388.58261 C22.9159229,388.58261 24.4182675,387.954467 25.558355,386.931178 C26.4062996,388.134876 27.8042032,388.923706 29.3883479,388.923706 C31.9760032,388.923706 34.0728586,386.826001 34.0728586,384.238198 C34.0728586,381.651125 31.9760032,379.553419 29.3883479,379.553419 L29.3883479,379.553419 Z" id="Stroke-91" stroke="#FEFEFE" stroke-width="6" stroke-linejoin="round"></path>
            <path d="M379.597958,623.927215 C379.597958,623.927215 378.876365,689.376069 300.682138,692.781189 L276.296243,681.076547 C265.92152,695.209765 271.255318,715.313995 287.27205,722.444149 L298.844559,727.595653 C298.844559,727.595653 383.186933,715.452771 390.458368,654.552841" id="Stroke-95" stroke="#FEFEFE" stroke-width="6" stroke-linejoin="round"></path>
            <path d="M417.374366,714.000884 C427.062554,708.579863 439.310643,712.039763 444.731354,721.728504 C450.152064,731.417246 446.693093,743.666766 437.004905,749.087786" id="Stroke-97" stroke="#FEFEFE" stroke-width="6" stroke-linejoin="round"></path>
            <path d="M439.407999,750.714019 C448.105092,742.044184 461.20916,741.090283 468.677062,748.582715 C476.144964,756.075147 475.148026,769.177043 466.450933,777.846878" id="Stroke-99" stroke="#FEFEFE" stroke-width="6" stroke-linejoin="round"></path>
            <path d="M588.958192,693.659275 C540.157919,693.608877 499.733381,732.705669 498.332556,781.488281 C497.678156,804.273075 505.45719,825.472903 518.776714,841.43431 L488.355147,841.43431 C471.01866,841.43431 458.579217,854.663295 454.358483,870.984789 C452.948894,876.435756 459.630931,875.763059 459.630931,875.763059 L568.996801,875.763059 C577.463831,875.763059 602.333953,874.302261 608.727499,872.841463 L611.802303,871.984705 C650.71281,861.826317 679.429722,826.32747 679.429722,784.23239" id="Stroke-105" stroke="#FEFEFE" stroke-width="6" stroke-linecap="round"></path>
            <path d="M465.873878,849.644724 C465.873878,849.644724 434.784766,847.998405 434.784766,872.844385 C434.784766,872.844385 445.329662,868.213656 455.206282,870.374176" id="Stroke-107" stroke="#FEFEFE" stroke-width="6" stroke-linecap="round"></path>
        </g>
    </g>
</svg>