<?xml version="1.0" encoding="UTF-8" standalone="no"?>
<svg width="580px" height="868px" viewBox="0 0 580 868" version="1.1" xmlns="http://www.w3.org/2000/svg" xmlns:xlink="http://www.w3.org/1999/xlink" xmlns:sketch="http://www.bohemiancoding.com/sketch/ns">
    <!-- Generator: Sketch 3.5.1 (25234) - http://www.bohemiancoding.com/sketch -->
    <title>london-white</title>
    <desc>Created with Sketch.</desc>
    <defs></defs>
    <g id="Page-1" stroke="none" stroke-width="1" fill="none" fill-rule="evenodd" sketch:type="MSPage">
        <g id="london-white" sketch:type="MSArtboardGroup" stroke="#FFFFFF">
            <g id="Group-2" sketch:type="MSLayerGroup" transform="translate(25.000000, 332.000000)">
                <ellipse id="Oval-1" stroke-width="6" sketch:type="MSShapeGroup" cx="264.828698" cy="265.122195" rx="228.87931" ry="228.553616"></ellipse>
                <ellipse id="Oval-1" stroke-width="6" sketch:type="MSShapeGroup" cx="264.828698" cy="265.122195" rx="205.991379" ry="205.698254"></ellipse>
                <path d="M293.150817,40.2572593 L235.837319,62.046042" id="Line" stroke-width="5" stroke-linecap="square" sketch:type="MSShapeGroup"></path>
                <path d="M293.150817,40.2572593 L235.837319,62.046042" id="Line" stroke-width="5" stroke-linecap="square" sketch:type="MSShapeGroup" transform="translate(264.494068, 51.151651) scale(-1, 1) translate(-264.494068, -51.151651) "></path>
                <path d="M293.150817,469.938057 L235.837319,492.488681" id="Line" stroke-width="5" stroke-linecap="square" sketch:type="MSShapeGroup" transform="translate(264.494068, 481.213369) scale(-1, 1) translate(-264.494068, -481.213369) "></path>
                <path d="M293.150817,469.938057 L235.837319,492.488681" id="Line" stroke-width="5" stroke-linecap="square" sketch:type="MSShapeGroup"></path>
                <g id="Group" transform="translate(265.251401, 265.973797) rotate(-270.000000) translate(-265.251401, -265.973797) translate(236.049757, 39.366655)" stroke-width="5" sketch:type="MSShapeGroup" stroke-linecap="square">
                    <path d="M57.8983303,0.39515032 L0.584831619,22.183933" id="Line"></path>
                    <path d="M57.8983303,0.39515032 L0.584831619,22.183933" id="Line" transform="translate(29.241581, 11.289542) scale(-1, 1) translate(-29.241581, -11.289542) "></path>
                    <path d="M57.8983303,430.380691 L0.584831619,452.931315" id="Line" transform="translate(29.241581, 441.656003) scale(-1, 1) translate(-29.241581, -441.656003) "></path>
                    <path d="M57.8983303,430.380691 L0.584831619,452.931315" id="Line"></path>
                </g>
                <g id="Group" transform="translate(264.861114, 265.422409) rotate(-225.000000) translate(-264.861114, -265.422409) translate(235.659471, 38.815266)" stroke-width="5" sketch:type="MSShapeGroup" stroke-linecap="square">
                    <path d="M57.8983303,0.39515032 L0.584831619,22.183933" id="Line"></path>
                    <path d="M57.8983303,0.39515032 L0.584831619,22.183933" id="Line" transform="translate(29.241581, 11.289542) scale(-1, 1) translate(-29.241581, -11.289542) "></path>
                    <path d="M57.8983303,430.380691 L0.584831619,452.931315" id="Line" transform="translate(29.241581, 441.656003) scale(-1, 1) translate(-29.241581, -441.656003) "></path>
                    <path d="M57.8983303,430.380691 L0.584831619,452.931315" id="Line"></path>
                </g>
                <g id="Group" transform="translate(265.212687, 265.124994) rotate(-135.000000) translate(-265.212687, -265.124994) translate(236.011043, 38.517851)" stroke-width="5" sketch:type="MSShapeGroup" stroke-linecap="square">
                    <path d="M57.8983303,0.39515032 L0.584831619,22.183933" id="Line"></path>
                    <path d="M57.8983303,0.39515032 L0.584831619,22.183933" id="Line" transform="translate(29.241581, 11.289542) scale(-1, 1) translate(-29.241581, -11.289542) "></path>
                    <path d="M57.8983303,430.380691 L0.584831619,452.931315" id="Line" transform="translate(29.241581, 441.656003) scale(-1, 1) translate(-29.241581, -441.656003) "></path>
                    <path d="M57.8983303,430.380691 L0.584831619,452.931315" id="Line"></path>
                </g>
                <g id="Group" transform="translate(264.764573, 264.975487) rotate(-203.000000) translate(-264.764573, -264.975487) translate(235.562929, 38.368344)" stroke-width="5" sketch:type="MSShapeGroup" stroke-linecap="square">
                    <path d="M57.8983303,0.39515032 L0.584831619,22.183933" id="Line"></path>
                    <path d="M57.8983303,0.39515032 L0.584831619,22.183933" id="Line" transform="translate(29.241581, 11.289542) scale(-1, 1) translate(-29.241581, -11.289542) "></path>
                    <path d="M57.8983303,430.380691 L0.584831619,452.931315" id="Line" transform="translate(29.241581, 441.656003) scale(-1, 1) translate(-29.241581, -441.656003) "></path>
                    <path d="M57.8983303,430.380691 L0.584831619,452.931315" id="Line"></path>
                </g>
                <g id="Group" transform="translate(264.958844, 264.811142) rotate(-157.000000) translate(-264.958844, -264.811142) translate(235.757200, 38.203999)" stroke-width="5" sketch:type="MSShapeGroup" stroke-linecap="square">
                    <path d="M57.8983303,0.39515032 L0.584831619,22.183933" id="Line"></path>
                    <path d="M57.8983303,0.39515032 L0.584831619,22.183933" id="Line" transform="translate(29.241581, 11.289542) scale(-1, 1) translate(-29.241581, -11.289542) "></path>
                    <path d="M57.8983303,430.380691 L0.584831619,452.931315" id="Line" transform="translate(29.241581, 441.656003) scale(-1, 1) translate(-29.241581, -441.656003) "></path>
                    <path d="M57.8983303,430.380691 L0.584831619,452.931315" id="Line"></path>
                </g>
                <g id="Group" transform="translate(265.004467, 265.028645) rotate(-113.000000) translate(-265.004467, -265.028645) translate(235.802824, 38.421502)" stroke-width="5" sketch:type="MSShapeGroup" stroke-linecap="square">
                    <path d="M57.8983303,0.39515032 L0.584831619,22.183933" id="Line"></path>
                    <path d="M57.8983303,0.39515032 L0.584831619,22.183933" id="Line" transform="translate(29.241581, 11.289542) scale(-1, 1) translate(-29.241581, -11.289542) "></path>
                    <path d="M57.8983303,430.380691 L0.584831619,452.931315" id="Line" transform="translate(29.241581, 441.656003) scale(-1, 1) translate(-29.241581, -441.656003) "></path>
                    <path d="M57.8983303,430.380691 L0.584831619,452.931315" id="Line"></path>
                </g>
                <g id="Group" transform="translate(265.168781, 265.222952) rotate(-67.000000) translate(-265.168781, -265.222952) translate(235.967137, 38.615809)" stroke-width="5" sketch:type="MSShapeGroup" stroke-linecap="square">
                    <path d="M57.8983303,0.39515032 L0.584831619,22.183933" id="Line"></path>
                    <path d="M57.8983303,0.39515032 L0.584831619,22.183933" id="Line" transform="translate(29.241581, 11.289542) scale(-1, 1) translate(-29.241581, -11.289542) "></path>
                    <path d="M57.8983303,430.380691 L0.584831619,452.931315" id="Line" transform="translate(29.241581, 441.656003) scale(-1, 1) translate(-29.241581, -441.656003) "></path>
                    <path d="M57.8983303,430.380691 L0.584831619,452.931315" id="Line"></path>
                </g>
                <ellipse id="Oval-1" stroke-width="6" sketch:type="MSShapeGroup" cx="264.828698" cy="265.122195" rx="105.284483" ry="105.134663"></ellipse>
                <ellipse id="Oval-1" stroke-width="6" sketch:type="MSShapeGroup" cx="264.828698" cy="265.122195" rx="15.2586207" ry="15.2369077"></ellipse>
                <polygon id="Triangle-2" stroke-width="6" sketch:type="MSShapeGroup" points="265.591629 263.598504 347.22525 611 183.958008 611 "></polygon>
                <g id="Oval-5-+-Oval-5" transform="translate(250.241379, 0.000000)" stroke-width="6" sketch:type="MSShapeGroup">
                    <ellipse id="Oval-5" cx="18.3103448" cy="18.2842893" rx="18.3103448" ry="18.2842893"></ellipse>
                    <ellipse id="Oval-5" cx="18.3103448" cy="511.9601" rx="18.3103448" ry="18.2842893"></ellipse>
                </g>
                <g id="Oval-5-+-Oval-5" transform="translate(265.407926, 265.272687) rotate(-270.000000) translate(-265.407926, -265.272687) translate(246.947117, 0.058401)" stroke-width="6" sketch:type="MSShapeGroup">
                    <ellipse id="Oval-5" cx="18.3103448" cy="18.2842893" rx="18.3103448" ry="18.2842893"></ellipse>
                    <ellipse id="Oval-5" cx="18.3103448" cy="511.9601" rx="18.3103448" ry="18.2842893"></ellipse>
                </g>
                <g id="Oval-5-+-Oval-5" transform="translate(265.328500, 265.163491) rotate(-225.000000) translate(-265.328500, -265.163491) translate(246.867691, -0.050795)" stroke-width="6" sketch:type="MSShapeGroup">
                    <ellipse id="Oval-5" cx="18.3103448" cy="18.2842893" rx="18.3103448" ry="18.2842893"></ellipse>
                    <ellipse id="Oval-5" cx="18.3103448" cy="511.9601" rx="18.3103448" ry="18.2842893"></ellipse>
                </g>
                <g id="Oval-5-+-Oval-5" transform="translate(265.458712, 264.950662) rotate(-135.000000) translate(-265.458712, -264.950662) translate(246.997903, -0.263624)" stroke-width="6" sketch:type="MSShapeGroup">
                    <ellipse id="Oval-5" cx="18.3103448" cy="18.2842893" rx="18.3103448" ry="18.2842893"></ellipse>
                    <ellipse id="Oval-5" cx="18.3103448" cy="511.9601" rx="18.3103448" ry="18.2842893"></ellipse>
                </g>
                <g id="Oval-5-+-Oval-5" transform="translate(268.318377, 266.406829) rotate(-339.000000) translate(-268.318377, -266.406829) translate(249.967641, 1.093930)" stroke-width="6" sketch:type="MSShapeGroup">
                    <ellipse id="Oval-5" cx="18.3103448" cy="18.2842893" rx="18.3103448" ry="18.2842893"></ellipse>
                    <ellipse id="Oval-5" cx="18.3103448" cy="511.9601" rx="18.3103448" ry="18.2842893"></ellipse>
                </g>
                <g id="Oval-5-+-Oval-5" transform="translate(265.360120, 265.229689) rotate(-249.000000) translate(-265.360120, -265.229689) translate(246.899311, 0.015403)" stroke-width="6" sketch:type="MSShapeGroup">
                    <ellipse id="Oval-5" cx="18.3103448" cy="18.2842893" rx="18.3103448" ry="18.2842893"></ellipse>
                    <ellipse id="Oval-5" cx="18.3103448" cy="511.9601" rx="18.3103448" ry="18.2842893"></ellipse>
                </g>
                <g id="Oval-5-+-Oval-5" transform="translate(265.325094, 265.099276) rotate(-204.000000) translate(-265.325094, -265.099276) translate(246.864285, -0.115010)" stroke-width="6" sketch:type="MSShapeGroup">
                    <ellipse id="Oval-5" cx="18.3103448" cy="18.2842893" rx="18.3103448" ry="18.2842893"></ellipse>
                    <ellipse id="Oval-5" cx="18.3103448" cy="511.9601" rx="18.3103448" ry="18.2842893"></ellipse>
                </g>
                <g id="Oval-5-+-Oval-5" transform="translate(265.522914, 264.947256) rotate(-114.000000) translate(-265.522914, -264.947256) translate(247.062105, -0.267030)" stroke-width="6" sketch:type="MSShapeGroup">
                    <ellipse id="Oval-5" cx="18.3103448" cy="18.2842893" rx="18.3103448" ry="18.2842893"></ellipse>
                    <ellipse id="Oval-5" cx="18.3103448" cy="511.9601" rx="18.3103448" ry="18.2842893"></ellipse>
                </g>
            </g>
        </g>
    </g>
</svg>