<?xml version="1.0" encoding="UTF-8" standalone="no"?>
<svg width="440px" height="868px" viewBox="0 0 440 868" version="1.1" xmlns="http://www.w3.org/2000/svg" xmlns:xlink="http://www.w3.org/1999/xlink">
    <!-- Generator: Sketch 3.6.1 (26313) - http://www.bohemiancoding.com/sketch -->
    <title>ny-white</title>
    <desc>Created with Sketch.</desc>
    <defs></defs>
    <g id="Page-1" stroke="none" stroke-width="1" fill="none" fill-rule="evenodd" stroke-linejoin="round">
        <g id="ny-white" stroke="#FEFEFE">
            <g id="Group" transform="translate(101.000000, 160.000000)">
                <path d="M24.7472222,574.054227 L212.04881,574.054227 L212.04881,555.295971 L24.7472222,555.295971 L24.7472222,574.054227 Z" id="Stroke-1" stroke-width="6"></path>
                <path d="M53.0138413,555.217186 L184.124952,555.217186 L184.124952,517.700674 L53.0138413,517.700674 L53.0138413,555.217186 Z" id="Stroke-2" stroke-width="6"></path>
                <path d="M24.7472222,681.358956 L212.04881,681.358956 L212.04881,662.6007 L24.7472222,662.6007 L24.7472222,681.358956 Z" id="Stroke-3" stroke-width="6"></path>
                <path d="M5.62934921,709.534795 L230.391254,709.534795 L230.391254,681.397411 L5.62934921,681.397411 L5.62934921,709.534795 Z" id="Stroke-4" stroke-width="6"></path>
                <path d="M202.683449,587.184631 L34.1120206,587.184631 L24.7469413,574.053852 L212.048529,574.053852 L202.683449,587.184631 L202.683449,587.184631 Z" id="Stroke-6" stroke-width="6"></path>
                <path d="M34.1123016,662.409366 L202.68373,662.409366 L202.68373,587.376341 L34.1123016,587.376341 L34.1123016,662.409366 Z" id="Stroke-7" stroke-width="6"></path>
                <path d="M66.1165238,646.464848 L88.5927143,646.464848 L88.5927143,603.320859 L66.1165238,603.320859 L66.1165238,646.464848 Z" id="Stroke-8" stroke-width="5"></path>
                <path d="M107.159921,646.464848 L129.636111,646.464848 L129.636111,603.320859 L107.159921,603.320859 L107.159921,646.464848 Z" id="Stroke-9" stroke-width="5"></path>
                <path d="M148.529222,646.464848 L171.005413,646.464848 L171.005413,603.320859 L148.529222,603.320859 L148.529222,646.464848 Z" id="Stroke-10" stroke-width="5"></path>
                <path d="M171.045872,517.70058 L171.045872,392.020263" id="Stroke-11" stroke-width="5"></path>
                <path d="M142.680543,189.474989 L126.617559,418.295703" id="Stroke-12" stroke-width="4"></path>
                <path d="M104.513068,452.515639 L120.865433,256.022905 C123.12991,230.04272 130.743719,204.814741 143.225497,181.927793 L179.849513,374.050791 C181.135338,380.793446 177.781703,387.569867 171.645703,390.630276 L131.705513,411.013935 C126.876878,413.422495 125.098449,419.424199 127.833052,424.079999 C130.272656,428.233077 128.680592,433.564173 124.772544,436.37416 L108.152338,445.885534 C104.366037,448.607357 103.175735,453.71523 105.366227,457.834543 C108.394894,463.52955 107.168068,470.55733 102.390005,474.88486 L58.1559254,517.70058 L58.1559254,422.465256" id="Stroke-13" stroke-width="6"></path>
                <path d="M129.365086,214.143128 L72.9554667,264.559694 C59.5549746,275.744304 53.4732921,286.604396 53.4732921,298.981094 L53.4732921,321.84647 L53.4732921,400.231596 C53.4732921,413.460856 58.1558317,426.191147 58.1558317,426.191147" id="Stroke-15" stroke-width="6"></path>
                <path d="M58.1559254,434.988487 L58.1559254,426.190865 C58.1559254,417.454207 61.8008143,409.115225 68.2102746,403.188554 L86.4693698,386.305185 C92.1043381,381.095079 95.981481,374.257695 97.5632429,366.742199 L120.865433,256.02253" id="Stroke-17" stroke-width="5"></path>
                <path d="M98.7379984,283.066026 L62.0381254,315.892037 C56.5885857,320.76637 53.4737603,327.736 53.4737603,335.052658" id="Stroke-19" stroke-width="5" stroke-linecap="round"></path>
                <path d="M72.9559349,264.560069 L64.3672206,253.619316 C60.3439825,248.492684 58.1563,242.160835 58.1563,235.640465 L58.1563,235.640465 C58.1563,227.146727 54.4496016,219.076925 48.0092365,213.550742 L34.1123952,201.624243 L19.7594746,187.555551 L72.9559349,138.784085 L84.7287762,150.788431 C87.2049032,153.313292 88.5928079,156.71135 88.5928079,160.251033 L88.5928079,177.23851 C88.5928079,177.23851 114.923665,188.915524 142.127348,182.291046" id="Stroke-21" stroke-width="5"></path>
                <path d="M66.1162429,196.934398 L88.5924333,177.238229" id="Stroke-23" stroke-width="5" stroke-linecap="round"></path>
                <path d="M143.846402,181.927793 C156.28229,181.927793 171.535195,191.983156 171.611989,204.4377 L172.415513,335.052376" id="Stroke-25" stroke-width="5"></path>
                <path d="M46.7633063,53.6122219 L5.8585127,53.6122219 C2.88135397,53.6122219 0.467973016,51.1952206 0.467973016,48.2135958 L0.467973016,42.0346262 C0.467973016,39.0530013 2.88135397,36.636 5.8585127,36.636 L46.7633063,36.636 C49.7404651,36.636 52.153846,39.0530013 52.153846,42.0346262 L52.153846,48.2135958 C52.153846,51.1952206 49.7404651,53.6122219 46.7633063,53.6122219 L46.7633063,53.6122219 Z" id="Stroke-27" stroke-width="5"></path>
                <path d="M27.2140778,88.0539749 L43.2246175,166.041425 L66.1166175,145.054688 L40.0657762,75.1829974" id="Stroke-29" stroke-width="5"></path>
                <path d="M29.1241794,90.0123369 L23.5051317,90.0123369 C17.3241794,90.0123369 12.2670365,84.9476077 12.2670365,78.7573831 L12.2670365,64.8668943 C12.2670365,58.6766697 17.3241794,53.6119406 23.5051317,53.6119406 L29.1241794,53.6119406 C35.3051317,53.6119406 40.3622746,58.6766697 40.3622746,64.8668943 L40.3622746,78.7573831 C40.3622746,84.9476077 35.3051317,90.0123369 29.1241794,90.0123369 L29.1241794,90.0123369 Z" id="Stroke-31" stroke-width="5"></path>
                <path d="M218.909573,305.295029 L213.545256,303.618979 C207.645256,301.77598 204.323462,295.432876 206.1637,289.523087 L207.83724,284.150723 C209.677478,278.241872 216.011081,274.915095 221.912017,276.758094 L227.276335,278.434144 C233.176335,280.278081 236.498129,286.621185 234.65789,292.530036 L232.984351,297.9024 C231.144113,303.811251 224.81051,307.138028 218.909573,305.295029 L218.909573,305.295029 Z" id="Stroke-33" stroke-width="5"></path>
                <path d="M11.7994381,36.9819022 C9.08731111,27.1431968 11.2497079,15.3639498 18.2847556,5.02064729 C22.9588667,-1.11424042 32.0045968,-1.02607662 30.7103429,5.15570674 C29.2568825,15.4671202 32.6348667,27.1863408 40.8433587,36.9819022" id="Stroke-35" stroke-width="5"></path>
                <path d="M145.251163,124.022275 C143.539227,133.811271 141.826354,148.996079 140.114417,158.785075 C139.50756,162.132486 136.61656,164.781152 132.93983,165.709686 C132.147544,165.908523 131.360878,166.113926 130.577957,166.324956 C122.631687,168.464336 114.573037,168.451205 106.630513,166.28744 C105.546973,165.990122 104.454068,165.705934 103.351798,165.434877 C100.391497,164.701429 98.0886238,162.571429 97.6063222,159.890875 C95.8297667,149.733279 94.0532111,134.179871 92.275719,124.022275" id="Stroke-37" stroke-width="5"></path>
                <path d="M149.691897,123.421448 C129.305992,116.78759 107.346754,116.78759 86.9608492,123.421448 C85.4109286,118.64372 83.8610079,113.86693 82.3110873,109.089202 C105.719103,101.472412 130.933643,101.472412 154.341659,109.089202 C152.791738,113.86693 151.241817,118.64372 149.691897,123.421448 L149.691897,123.421448 Z" id="Stroke-39" stroke-width="4"></path>
                <path d="M93.0774635,135.306398 C93.0774635,135.306398 113.09813,137.533003 119.929019,118.480242" id="Stroke-41" stroke-width="4"></path>
                <path d="M145.215108,135.306398 C145.215108,135.306398 125.194441,137.533003 118.363552,118.480242" id="Stroke-43" stroke-width="4"></path>
                <path d="M106.091743,166.75649 L106.091743,181.771536" id="Stroke-45" stroke-width="5"></path>
                <path d="M131.916227,167.694403 L132.384481,183.647362" id="Stroke-47" stroke-width="5"></path>
                <path d="M146.187671,123.777198 L146.187671,140.190672 C146.187671,142.003658 147.655179,143.473367 149.465449,143.473367 L149.465449,143.473367 C151.275719,143.473367 152.743227,144.943077 152.743227,146.756062 L152.743227,166.452231 C152.743227,168.265217 151.275719,169.734926 149.465449,169.734926 L149.465449,169.734926 C147.655179,169.734926 146.187671,171.204635 146.187671,173.017621 L146.187671,180.051967" id="Stroke-49" stroke-width="5"></path>
                <path d="M91.8702111,123.777198 L91.8702111,140.190672 C91.8702111,142.003658 90.4027032,143.473367 88.5924333,143.473367 L88.5924333,143.473367 C86.7821635,143.473367 85.3146556,144.943077 85.3146556,146.756062 L85.3146556,151.426868" id="Stroke-51" stroke-width="5"></path>
                <path d="M118,101.501769 L118,62.5783871" id="Stroke-53" stroke-width="4" stroke-linecap="round"></path>
                <path d="M127.69164,103.846551 L137.056719,74.3022972" id="Stroke-55" stroke-width="4" stroke-linecap="round"></path>
                <path d="M137.056719,105.25342 L155.786878,89.7778587" id="Stroke-57" stroke-width="4" stroke-linecap="round"></path>
                <path d="M99.4579857,105.25342 L80.727827,89.7778587" id="Stroke-59" stroke-width="4" stroke-linecap="round"></path>
                <path d="M108.961481,103.846551 L99.5964016,74.3022972" id="Stroke-61" stroke-width="4" stroke-linecap="round"></path>
                <path d="M212.048622,306.22497 L205.656019,326.489514 L182.243321,300.574045 L205.187765,227.885802 L229.068717,252.271535 L221.911924,276.758563" id="Stroke-63" stroke-width="5" stroke-linecap="round"></path>
                <path d="M171.94164,231.637172 L197.643163,251.785415" id="Stroke-65" stroke-width="5" stroke-linecap="round"></path>
                <path d="M173.814656,264.560069 L189.624783,277.188127" id="Stroke-67" stroke-width="5" stroke-linecap="round"></path>
            </g>
        </g>
    </g>
</svg>