<?xml version="1.0" encoding="UTF-8" standalone="no"?>
<svg width="500px" height="868px" viewBox="0 0 500 868" version="1.1" xmlns="http://www.w3.org/2000/svg" xmlns:xlink="http://www.w3.org/1999/xlink" xmlns:sketch="http://www.bohemiancoding.com/sketch/ns">
    <!-- Generator: Sketch 3.5.1 (25234) - http://www.bohemiancoding.com/sketch -->
    <title>paris-white</title>
    <desc>Created with Sketch.</desc>
    <defs></defs>
    <g id="Page-1" stroke="none" stroke-width="1" fill="none" fill-rule="evenodd" sketch:type="MSPage">
        <g id="paris-white" sketch:type="MSArtboardGroup">
            <path d="M358.371317,673 L99.6286833,673 C97.6248167,673 96,674.35605 96,676.02845 L96,706.97155 C96,708.64395 97.6248167,710 99.6286833,710 L358.371317,710 C360.375183,710 362,708.64395 362,706.97155 L362,676.02845 C362,674.35605 360.375183,673 358.371317,673 L358.371317,673 Z" id="Fill-1" stroke="#FFFFFF" stroke-width="6" sketch:type="MSShapeGroup"></path>
            <path d="M98.9377649,710 C97.5059375,710 96.1941701,710.7917 95.5538498,712.0445 L10.4045843,878.64515 C9.14617693,881.105075 10.9759812,884 13.7862761,884 L93.2215719,884 C95.2136796,884 96.8344905,882.48185 96.9856772,880.539575 C102.199397,813.131975 159.759304,760.025 230.001112,760.025 C300.240696,760.025 357.800603,813.131975 363.014323,880.539575 C363.16551,882.48185 364.78632,884 366.778428,884 L446.213724,884 C449.024019,884 450.853823,881.105075 449.595416,878.64515 L364.44615,712.0445 C363.80583,710.7917 362.494063,710 361.062235,710 L98.9377649,710 Z" id="Fill-3" stroke="#FFFFFF" stroke-width="6" sketch:type="MSShapeGroup"></path>
            <path d="M81,748 L380,748" id="Stroke-6" stroke="#FFFFFF" stroke-width="6" stroke-linecap="round" stroke-linejoin="round" sketch:type="MSShapeGroup"></path>
            <path d="M73.1762968,878.025482 L141.014002,749.438058" id="Stroke-8" stroke="#FFFFFF" stroke-width="6" stroke-linecap="round" stroke-linejoin="round" sketch:type="MSShapeGroup"></path>
            <path d="M291.902555,511.292467 L167.55057,511.292467 L156.447715,548.292237 L303.00541,548.292237 L291.902555,511.292467 Z" id="Fill-10" sketch:type="MSShapeGroup"></path>
            <path d="M218,540 L159.2,540 L120,673 L194.044444,673 L218,540 Z" id="Fill-12" stroke="#FFFFFF" stroke-width="6" sketch:type="MSShapeGroup"></path>
            <path d="M340,540 L281.2,540 L242,673 L316.044444,673 L340,540 Z" id="Fill-12" stroke="#FFFFFF" stroke-width="6" sketch:type="MSShapeGroup" transform="translate(291.000000, 606.500000) scale(-1, 1) translate(-291.000000, -606.500000) "></path>
            <path d="M296.934769,486 L161.065231,486 C158.818831,486 157,487.791273 157,490.003636 L157,505.996364 C157,508.208727 158.818831,510 161.065231,510 L296.934769,510 C299.178954,510 301,508.208727 301,505.996364 L301,490.003636 C301,487.791273 299.178954,486 296.934769,486 L296.934769,486 Z" id="Fill-16" stroke="#FFFFFF" stroke-width="6" sketch:type="MSShapeGroup"></path>
            <rect id="Rectangle-11" stroke="#FFFFFF" stroke-width="6" sketch:type="MSShapeGroup" x="204" y="78" width="50" height="40" rx="5"></rect>
            <rect id="Rectangle-11" stroke="#FFFFFF" stroke-width="6" sketch:type="MSShapeGroup" x="184" y="118" width="90" height="20" rx="5"></rect>
            <path d="M309.200769,510 L148.799231,510 C146.147231,510 144,512.239091 144,515.004545 L144,534.995455 C144,537.760909 146.147231,540 148.799231,540 L309.200769,540 C311.850154,540 314,537.760909 314,534.995455 L314,515.004545 C314,512.239091 311.850154,510 309.200769,510 L309.200769,510 Z" id="Fill-16" stroke="#FFFFFF" stroke-width="6" sketch:type="MSShapeGroup"></path>
            <path d="M174.880232,486.178443 C174.880232,486.178443 202.151066,373.836258 202.151066,139.212011" id="Stroke-18" stroke="#FFFFFF" stroke-width="6" stroke-linecap="round" stroke-linejoin="round" sketch:type="MSShapeGroup"></path>
            <path d="M284.312642,486.178443 C284.312642,486.178443 257.041808,373.836258 257.041808,139.212011" id="Stroke-20" stroke="#FFFFFF" stroke-width="6" stroke-linecap="round" stroke-linejoin="round" sketch:type="MSShapeGroup"></path>
            <path d="M386.276828,880.201939 L318.439123,750.438058" id="Stroke-22" stroke="#FFFFFF" stroke-width="6" stroke-linecap="round" stroke-linejoin="round" sketch:type="MSShapeGroup"></path>
            <path d="M69.5477838,880.801335 L53.356391,812.930698 C51.9644871,806.910618 54.7272763,800.716421 60.2878859,797.390795 L137.136865,749.640658 L172,771.243262" id="Stroke-24" stroke="#FFFFFF" stroke-width="6" stroke-linecap="round" stroke-linejoin="round" sketch:type="MSShapeGroup"></path>
            <path d="M390.462126,882.977792 L406.646446,812.930698 C408.037742,806.910618 405.27616,800.716421 399.717979,797.390795 L321.902567,750.640658 L283.362682,770.410947" id="Stroke-26" stroke="#FFFFFF" stroke-width="6" stroke-linecap="round" stroke-linejoin="round" sketch:type="MSShapeGroup"></path>
            <path d="M79.8529397,749.183984 L103.050529,807.542661 C104.485018,813.332037 102.228917,819.399999 97.3325579,822.928036 L17.1810425,880.686854" id="Stroke-28" stroke="#FFFFFF" stroke-width="6" stroke-linecap="round" stroke-linejoin="round" sketch:type="MSShapeGroup"></path>
            <path d="M380.272352,751.183984 L357.074763,807.542661 C355.640274,813.332037 357.896375,819.399999 362.792734,822.928036 L442.944249,880.686854" id="Stroke-30" stroke="#FFFFFF" stroke-width="6" stroke-linecap="round" stroke-linejoin="round" sketch:type="MSShapeGroup"></path>
            <path d="M123.630552,670.198401 L196.196604,617.376466 C199.041156,615.012834 199.700666,610.968977 197.748784,607.854467 L160.207808,543.969251" id="Stroke-32" stroke="#FFFFFF" stroke-width="6" stroke-linecap="round" stroke-linejoin="round" sketch:type="MSShapeGroup"></path>
            <path d="M335.375419,670.198401 L265.02032,617.55276 C262.046976,615.082481 261.338613,610.862331 263.34823,607.588939 L300.577591,545.145708" id="Stroke-34" stroke="#FFFFFF" stroke-width="6" stroke-linecap="round" stroke-linejoin="round" sketch:type="MSShapeGroup"></path>
            <path d="M266.257623,665.198401 L310.390739,604.011664 C312.424783,601.056035 312.022859,597.099236 309.431453,594.596311 L244.541171,540.792794 L284.641731,487.910738 L195.361448,414.723017 C192.836658,412.653206 192.663454,408.905347 194.988392,406.620067 L259.48266,343.25252 C262.20508,340.577654 262.138463,336.226916 259.336102,333.630403 L204.201541,282.601191 C202.078675,280.638026 201.459136,277.569222 202.660465,274.961826 L257.063723,151.380418" id="Stroke-36" stroke="#FFFFFF" stroke-width="6" stroke-linecap="round" stroke-linejoin="round" sketch:type="MSShapeGroup"></path>
            <path d="M124.249433,675.614975 L139.793431,749.614515" id="Stroke-38" stroke="#FFFFFF" stroke-width="6" stroke-linecap="round" stroke-linejoin="round" sketch:type="MSShapeGroup"></path>
            <path d="M335.203692,675.614975 L319.659694,749.614515" id="Stroke-40" stroke="#FFFFFF" stroke-width="6" stroke-linecap="round" stroke-linejoin="round" sketch:type="MSShapeGroup"></path>
            <path d="M265.586558,673.614975 L170.881427,771.379086" id="Stroke-42" stroke="#FFFFFF" stroke-width="6" stroke-linecap="round" stroke-linejoin="round" sketch:type="MSShapeGroup"></path>
            <path d="M194.866567,673.614975 L284.130556,769.202629" id="Stroke-44" stroke="#FFFFFF" stroke-width="6" stroke-linecap="round" stroke-linejoin="round" sketch:type="MSShapeGroup"></path>
            <path d="M194.115041,665.198401 L149.907911,604.224957 C147.780603,601.134388 148.164762,597.001296 150.827227,594.339489 L215.610921,540.792794 L175.730932,486.910738 L263.521213,415.944009 C266.847628,413.216908 267.074127,408.28288 264.011959,405.27284 L201.283045,343.637753 C198.345229,340.751771 198.416287,336.057153 201.440705,333.258229 L255.89133,282.860189 C258.180739,280.74032 258.849131,277.432105 257.554538,274.617946 L203.088369,151.380418" id="Stroke-46" stroke="#FFFFFF" stroke-width="6" stroke-linecap="round" stroke-linejoin="round" sketch:type="MSShapeGroup"></path>
            <path d="M229,36.9314577 L229,76.9314577" id="Line" stroke="#FFFFFF" stroke-width="6" stroke-linecap="square" sketch:type="MSShapeGroup"></path>
        </g>
    </g>
</svg>