<?xml version="1.0" encoding="UTF-8" standalone="no"?>
<svg width="500px" height="868px" viewBox="0 0 500 868" version="1.1" xmlns="http://www.w3.org/2000/svg" xmlns:xlink="http://www.w3.org/1999/xlink" xmlns:sketch="http://www.bohemiancoding.com/sketch/ns">
    <!-- Generator: Sketch 3.5.1 (25234) - http://www.bohemiancoding.com/sketch -->
    <title>paris-gray</title>
    <desc>Created with Sketch.</desc>
    <defs></defs>
    <g id="Page-1" stroke="none" stroke-width="1" fill="none" fill-rule="evenodd" sketch:type="MSPage">
        <g id="paris-gray" sketch:type="MSArtboardGroup">
            <path d="M378.371317,673 L119.628683,673 C117.624817,673 116,674.35605 116,676.02845 L116,706.97155 C116,708.64395 117.624817,710 119.628683,710 L378.371317,710 C380.375183,710 382,708.64395 382,706.97155 L382,676.02845 C382,674.35605 380.375183,673 378.371317,673 L378.371317,673 Z" id="Fill-1" stroke="#CACBCC" stroke-width="6" sketch:type="MSShapeGroup"></path>
            <path d="M118.937765,710 C117.505937,710 116.19417,710.7917 115.55385,712.0445 L30.4045843,878.64515 C29.1461769,881.105075 30.9759812,884 33.7862761,884 L113.221572,884 C115.21368,884 116.83449,882.48185 116.985677,880.539575 C122.199397,813.131975 179.759304,760.025 250.001112,760.025 C320.240696,760.025 377.800603,813.131975 383.014323,880.539575 C383.16551,882.48185 384.78632,884 386.778428,884 L466.213724,884 C469.024019,884 470.853823,881.105075 469.595416,878.64515 L384.44615,712.0445 C383.80583,710.7917 382.494063,710 381.062235,710 L118.937765,710 Z" id="Fill-3" stroke="#CACBCC" stroke-width="6" sketch:type="MSShapeGroup"></path>
            <path d="M101,748 L400,748" id="Stroke-6" stroke="#CACBCC" stroke-width="6" stroke-linecap="round" stroke-linejoin="round" sketch:type="MSShapeGroup"></path>
            <path d="M93.1762968,878.025482 L161.014002,749.438058" id="Stroke-8" stroke="#CACBCC" stroke-width="6" stroke-linecap="round" stroke-linejoin="round" sketch:type="MSShapeGroup"></path>
            <path d="M311.902555,511.292467 L187.55057,511.292467 L176.447715,548.292237 L323.00541,548.292237 L311.902555,511.292467 Z" id="Fill-10" sketch:type="MSShapeGroup"></path>
            <path d="M238,540 L179.2,540 L140,673 L214.044444,673 L238,540 Z" id="Fill-12" stroke="#CACBCC" stroke-width="6" sketch:type="MSShapeGroup"></path>
            <path d="M360,540 L301.2,540 L262,673 L336.044444,673 L360,540 Z" id="Fill-12" stroke="#CACBCC" stroke-width="6" sketch:type="MSShapeGroup" transform="translate(311.000000, 606.500000) scale(-1, 1) translate(-311.000000, -606.500000) "></path>
            <path d="M316.934769,486 L181.065231,486 C178.818831,486 177,487.791273 177,490.003636 L177,505.996364 C177,508.208727 178.818831,510 181.065231,510 L316.934769,510 C319.178954,510 321,508.208727 321,505.996364 L321,490.003636 C321,487.791273 319.178954,486 316.934769,486 L316.934769,486 Z" id="Fill-16" stroke="#CACBCC" stroke-width="6" sketch:type="MSShapeGroup"></path>
            <rect id="Rectangle-11" stroke="#CACBCC" stroke-width="6" sketch:type="MSShapeGroup" x="224" y="78" width="50" height="40" rx="5"></rect>
            <rect id="Rectangle-11" stroke="#CACBCC" stroke-width="6" sketch:type="MSShapeGroup" x="204" y="118" width="90" height="20" rx="5"></rect>
            <path d="M329.200769,510 L168.799231,510 C166.147231,510 164,512.239091 164,515.004545 L164,534.995455 C164,537.760909 166.147231,540 168.799231,540 L329.200769,540 C331.850154,540 334,537.760909 334,534.995455 L334,515.004545 C334,512.239091 331.850154,510 329.200769,510 L329.200769,510 Z" id="Fill-16" stroke="#CACBCC" stroke-width="6" sketch:type="MSShapeGroup"></path>
            <path d="M194.880232,486.178443 C194.880232,486.178443 222.151066,373.836258 222.151066,139.212011" id="Stroke-18" stroke="#CACBCC" stroke-width="6" stroke-linecap="round" stroke-linejoin="round" sketch:type="MSShapeGroup"></path>
            <path d="M304.312642,486.178443 C304.312642,486.178443 277.041808,373.836258 277.041808,139.212011" id="Stroke-20" stroke="#CACBCC" stroke-width="6" stroke-linecap="round" stroke-linejoin="round" sketch:type="MSShapeGroup"></path>
            <path d="M406.276828,880.201939 L338.439123,750.438058" id="Stroke-22" stroke="#CACBCC" stroke-width="6" stroke-linecap="round" stroke-linejoin="round" sketch:type="MSShapeGroup"></path>
            <path d="M89.5477838,880.801335 L73.356391,812.930698 C71.9644871,806.910618 74.7272763,800.716421 80.2878859,797.390795 L157.136865,749.640658 L192,771.243262" id="Stroke-24" stroke="#CACBCC" stroke-width="6" stroke-linecap="round" stroke-linejoin="round" sketch:type="MSShapeGroup"></path>
            <path d="M410.462126,882.977792 L426.646446,812.930698 C428.037742,806.910618 425.27616,800.716421 419.717979,797.390795 L341.902567,750.640658 L303.362682,770.410947" id="Stroke-26" stroke="#CACBCC" stroke-width="6" stroke-linecap="round" stroke-linejoin="round" sketch:type="MSShapeGroup"></path>
            <path d="M99.8529397,749.183984 L123.050529,807.542661 C124.485018,813.332037 122.228917,819.399999 117.332558,822.928036 L37.1810425,880.686854" id="Stroke-28" stroke="#CACBCC" stroke-width="6" stroke-linecap="round" stroke-linejoin="round" sketch:type="MSShapeGroup"></path>
            <path d="M400.272352,751.183984 L377.074763,807.542661 C375.640274,813.332037 377.896375,819.399999 382.792734,822.928036 L462.944249,880.686854" id="Stroke-30" stroke="#CACBCC" stroke-width="6" stroke-linecap="round" stroke-linejoin="round" sketch:type="MSShapeGroup"></path>
            <path d="M143.630552,670.198401 L216.196604,617.376466 C219.041156,615.012834 219.700666,610.968977 217.748784,607.854467 L180.207808,543.969251" id="Stroke-32" stroke="#CACBCC" stroke-width="6" stroke-linecap="round" stroke-linejoin="round" sketch:type="MSShapeGroup"></path>
            <path d="M355.375419,670.198401 L285.02032,617.55276 C282.046976,615.082481 281.338613,610.862331 283.34823,607.588939 L320.577591,545.145708" id="Stroke-34" stroke="#CACBCC" stroke-width="6" stroke-linecap="round" stroke-linejoin="round" sketch:type="MSShapeGroup"></path>
            <path d="M286.257623,665.198401 L330.390739,604.011664 C332.424783,601.056035 332.022859,597.099236 329.431453,594.596311 L264.541171,540.792794 L304.641731,487.910738 L215.361448,414.723017 C212.836658,412.653206 212.663454,408.905347 214.988392,406.620067 L279.48266,343.25252 C282.20508,340.577654 282.138463,336.226916 279.336102,333.630403 L224.201541,282.601191 C222.078675,280.638026 221.459136,277.569222 222.660465,274.961826 L277.063723,151.380418" id="Stroke-36" stroke="#CACBCC" stroke-width="6" stroke-linecap="round" stroke-linejoin="round" sketch:type="MSShapeGroup"></path>
            <path d="M144.249433,675.614975 L159.793431,749.614515" id="Stroke-38" stroke="#CACBCC" stroke-width="6" stroke-linecap="round" stroke-linejoin="round" sketch:type="MSShapeGroup"></path>
            <path d="M355.203692,675.614975 L339.659694,749.614515" id="Stroke-40" stroke="#CACBCC" stroke-width="6" stroke-linecap="round" stroke-linejoin="round" sketch:type="MSShapeGroup"></path>
            <path d="M285.586558,673.614975 L190.881427,771.379086" id="Stroke-42" stroke="#CACBCC" stroke-width="6" stroke-linecap="round" stroke-linejoin="round" sketch:type="MSShapeGroup"></path>
            <path d="M214.866567,673.614975 L304.130556,769.202629" id="Stroke-44" stroke="#CACBCC" stroke-width="6" stroke-linecap="round" stroke-linejoin="round" sketch:type="MSShapeGroup"></path>
            <path d="M214.115041,665.198401 L169.907911,604.224957 C167.780603,601.134388 168.164762,597.001296 170.827227,594.339489 L235.610921,540.792794 L195.730932,486.910738 L283.521213,415.944009 C286.847628,413.216908 287.074127,408.28288 284.011959,405.27284 L221.283045,343.637753 C218.345229,340.751771 218.416287,336.057153 221.440705,333.258229 L275.89133,282.860189 C278.180739,280.74032 278.849131,277.432105 277.554538,274.617946 L223.088369,151.380418" id="Stroke-46" stroke="#CACBCC" stroke-width="6" stroke-linecap="round" stroke-linejoin="round" sketch:type="MSShapeGroup"></path>
            <path d="M250,36.9314577 L250,76.9314577" id="Line" stroke="#CACBCC" stroke-width="6" stroke-linecap="square" sketch:type="MSShapeGroup"></path>
        </g>
    </g>
</svg>