<?xml version="1.0" encoding="UTF-8" standalone="no"?>
<svg width="580px" height="868px" viewBox="0 0 580 868" version="1.1" xmlns="http://www.w3.org/2000/svg" xmlns:xlink="http://www.w3.org/1999/xlink" xmlns:sketch="http://www.bohemiancoding.com/sketch/ns">
    <!-- Generator: Sketch 3.5.1 (25234) - http://www.bohemiancoding.com/sketch -->
    <title>warsaw-white</title>
    <desc>Created with Sketch.</desc>
    <defs></defs>
    <g id="Page-1" stroke="none" stroke-width="1" fill="none" fill-rule="evenodd" sketch:type="MSPage">
        <g id="warsaw-white" sketch:type="MSArtboardGroup" stroke="#FFFFFF" stroke-width="6">
            <rect id="Rectangle-7" sketch:type="MSShapeGroup" x="32" y="774" width="520" height="110"></rect>
            <rect id="Rectangle-7" sketch:type="MSShapeGroup" x="115" y="634" width="72" height="140"></rect>
            <rect id="Rectangle-7" sketch:type="MSShapeGroup" x="172" y="774" width="240" height="106"></rect>
            <rect id="Rectangle-7" sketch:type="MSShapeGroup" x="187" y="354" width="210" height="420"></rect>
            <rect id="Rectangle-7" sketch:type="MSShapeGroup" transform="translate(292.000000, 333.000000) scale(1, -1) translate(-292.000000, -333.000000) " x="242" y="312" width="100" height="42"></rect>
            <ellipse id="Oval-23" sketch:type="MSShapeGroup" cx="292.06422" cy="261.082803" rx="14.0642202" ry="14.0828025"></ellipse>
            <path d="M118,675.041401 L181.312432,675.041401" id="Line" stroke-linecap="square" sketch:type="MSShapeGroup"></path>
            <path d="M402,675.041401 L462.968395,675.041401" id="Line" stroke-linecap="square" sketch:type="MSShapeGroup"></path>
            <path d="M233.03211,429.767095 L233.03211,734.220682" id="Line" stroke-linecap="square" sketch:type="MSShapeGroup"></path>
            <path d="M292.03211,146.931458 L292.03211,211.220682" id="Line" stroke-linecap="square" sketch:type="MSShapeGroup"></path>
            <path d="M257.03211,429.767095 L257.03211,734.220682" id="Line" stroke-linecap="square" sketch:type="MSShapeGroup"></path>
            <path d="M280.03211,429.767095 L280.03211,734.220682" id="Line" stroke-linecap="square" sketch:type="MSShapeGroup"></path>
            <path d="M304.03211,429.767095 L304.03211,734.220682" id="Line" stroke-linecap="square" sketch:type="MSShapeGroup"></path>
            <path d="M327.03211,429.767095 L327.03211,734.220682" id="Line" stroke-linecap="square" sketch:type="MSShapeGroup"></path>
            <path d="M351.03211,429.767095 L351.03211,734.220682" id="Line" stroke-linecap="square" sketch:type="MSShapeGroup"></path>
            <rect id="Rectangle-7" sketch:type="MSShapeGroup" x="397" y="634" width="72" height="140"></rect>
            <rect id="Rectangle-7" sketch:type="MSShapeGroup" x="460" y="774" width="92" height="42"></rect>
            <rect id="Rectangle-7" sketch:type="MSShapeGroup" x="32" y="774" width="92" height="42"></rect>
            <rect id="Rectangle-7" sketch:type="MSShapeGroup" transform="translate(292.000000, 262.000000) scale(1, -1) translate(-292.000000, -262.000000) " x="256" y="212" width="72" height="100"></rect>
            <path d="M177,779 L409.683486,868.346056" id="Line" stroke-linecap="square" sketch:type="MSShapeGroup"></path>
            <path d="M121.098332,775 L81.3147435,808.42675 C78.6826888,810.63824 74.4156431,810.63824 71.7835883,808.42675 L32,775" id="Page-1" sketch:type="MSShapeGroup"></path>
            <path d="M550.098332,775 L510.314744,808.42675 C507.682689,810.63824 503.415643,810.63824 500.783588,808.42675 L461,775" id="Page-1" sketch:type="MSShapeGroup"></path>
            <path d="M469.547448,636.085368 L437.903358,666.105374 C435.809807,668.091477 432.415775,668.091477 430.322224,666.105374 L398.678134,636.085368" id="Page-1" sketch:type="MSShapeGroup"></path>
            <path d="M185.869314,636 L154.225224,666.020006 C152.131673,668.006109 148.737641,668.006109 146.64409,666.020006 L115,636" id="Page-1" sketch:type="MSShapeGroup"></path>
            <path d="M336.098332,313 L296.314744,346.42675 C293.682689,348.63824 289.415643,348.63824 286.783588,346.42675 L247,313" id="Page-1" sketch:type="MSShapeGroup"></path>
            <path d="M550.098332,779 L510.314744,812.42675 C507.682689,814.63824 503.415643,814.63824 500.783588,812.42675 L461,779" id="Page-1" sketch:type="MSShapeGroup" transform="translate(506.000000, 797.000000) rotate(-180.000000) translate(-506.000000, -797.000000) "></path>
            <path d="M399.80882,672.085368 L431.45291,642.065362 C433.546461,640.079259 436.940493,640.079259 439.034044,642.065362 L470.678134,672.085368" id="Page-1" sketch:type="MSShapeGroup"></path>
            <path d="M116,672.509583 L147.64409,642.489577 C149.737641,640.503474 153.131673,640.503474 155.225224,642.489577 L186.869314,672.509583" id="Page-1" sketch:type="MSShapeGroup"></path>
            <path d="M336.098332,317 L296.314744,350.42675 C293.682689,352.63824 289.415643,352.63824 286.783588,350.42675 L247,317" id="Page-1" sketch:type="MSShapeGroup" transform="translate(292.000000, 335.000000) rotate(-180.000000) translate(-292.000000, -335.000000) "></path>
            <path d="M121.098332,779 L81.3147435,812.42675 C78.6826888,814.63824 74.4156431,814.63824 71.7835883,812.42675 L32,779" id="Page-1" sketch:type="MSShapeGroup" transform="translate(77.000000, 797.000000) rotate(-180.000000) translate(-77.000000, -797.000000) "></path>
        </g>
    </g>
</svg>