<?xml version="1.0" encoding="utf-8"?>
<!-- Generator: Adobe Illustrator 19.2.1, SVG Export Plug-In . SVG Version: 6.00 Build 0)  -->
<svg version="1.1" id="Warstwa_1" xmlns="http://www.w3.org/2000/svg" xmlns:xlink="http://www.w3.org/1999/xlink" x="0px" y="0px"
	 width="500px" height="500px" viewBox="0 0 500 500" style="enable-background:new 0 0 500 500;" xml:space="preserve">
<style type="text/css">
	.st0{fill:none;stroke:#232833;stroke-width:20;stroke-linecap:round;stroke-linejoin:round;stroke-miterlimit:10;}
</style>
<path class="st0" d="M78.4,187.2v124.1c0,83.5,67.7,151,151.2,151s151-67.7,151-151V187.2L78.4,187.2L78.4,187.2z"/>
<path class="st0" d="M380.6,187.2c41.7,0,75.5,33.8,75.5,75.5s-33.8,75.5-75.5,75.5"/>
<g>
	<path class="st0" d="M160.9,130.8c-3.8-12.9-5.9-26.4-5.9-40.5c0-15.6,2.5-30.6,7.3-44.8"/>
</g>
<g>
	<path class="st0" d="M296,130.8c-3.8-12.9-5.9-26.4-5.9-40.5c0-15.6,2.5-30.6,7.3-44.8"/>
</g>
<g>
	<path class="st0" d="M229.2,143.4c-5.1-16.7-7.7-34.3-7.7-52.7c0-20.4,3.4-39.8,9.5-58.1"/>
</g>
</svg>
