<?xml version="1.0" encoding="utf-8"?>
<!-- Generator: Adobe Illustrator 19.2.1, SVG Export Plug-In . SVG Version: 6.00 Build 0)  -->
<svg version="1.1" id="Warstwa_1" xmlns="http://www.w3.org/2000/svg" xmlns:xlink="http://www.w3.org/1999/xlink" x="0px" y="0px"
	 width="500px" height="500px" viewBox="0 0 500 500" style="enable-background:new 0 0 500 500;" xml:space="preserve">
<style type="text/css">
	.st0{fill:none;stroke:#FFFFFF;stroke-width:20;stroke-miterlimit:10;}
</style>
<path class="st0" d="M254.7,48.4L304.6,192c0.8,2,2.6,3.3,4.7,3.3l152.1,3c4.8,0.2,6.8,6.2,2.9,9.1l-121.2,91.9
	c-1.7,1.2-2.4,3.5-1.8,5.4l44,145.6c1.4,4.5-3.8,8.3-7.7,5.6L252.9,369c-1.7-1.2-4.1-1.2-5.8,0l-124.8,86.9
	c-3.9,2.7-9.1-1.1-7.7-5.6l44-145.6c0.6-2-0.2-4.2-1.8-5.4L35.6,207.5c-3.8-2.9-1.8-8.9,2.9-9.1l152.1-3c2.1,0,3.9-1.4,4.7-3.3
	l49.9-143.6C246.8,43.9,253.2,43.9,254.7,48.4z"/>
</svg>
