<?xml version="1.0" encoding="utf-8"?>
<!-- Generator: Adobe Illustrator 19.2.1, SVG Export Plug-In . SVG Version: 6.00 Build 0)  -->
<svg version="1.1" id="Warstwa_1" xmlns="http://www.w3.org/2000/svg" xmlns:xlink="http://www.w3.org/1999/xlink" x="0px" y="0px"
	 width="500px" height="500px" viewBox="0 0 500 500" style="enable-background:new 0 0 500 500;" xml:space="preserve">
<style type="text/css">
	.st0{fill:none;stroke:#232833;stroke-width:20;stroke-miterlimit:10;}
</style>
<g id="flash">
	<path class="st0" d="M181.7,454l-2.1-2.1c-2.1-4.1-2.1-8.3-2.1-10.4c2.1-6.2,55.9-159.4,55.9-159.4H127.9c-4.1,0-8.3-2.1-10.3-6.2
		c-2.1-4.1-2.1-10.4,2.1-14.5c62.1-70.4,182.2-204.9,186.3-209.1c2.1-4.1,6.2-6.2,8.3-6.2h4.1l2.1,2.1c2.1,2.1,2.1,4.1,2.1,10.3
		c-2.1,6.2-51.8,149-53.8,155.2h103.5c4.1,0,8.3,2.1,10.4,6.2s2.1,8.3-2.1,12.4c0,0-184.2,213.2-186.3,217.4
		c-2.1,2.1-6.2,4.1-8.3,4.1H181.7z"/>
</g>
</svg>
